<svg width="80" height="80" viewBox="0 0 80 80" fill="none" xmlns="http://www.w3.org/2000/svg">
<g clip-path="url(#clip0_4948_49)">
<path d="M31.139 50.9148L57.6052 31.3515C58.9035 30.3939 60.76 30.764 61.3768 32.2562C64.6315 40.1109 63.1745 49.5518 56.7004 56.0376C50.2263 62.5176 41.2202 63.9393 32.9837 60.7023L23.9893 64.8734C36.8904 73.7033 52.5587 71.5179 62.3462 61.7127C70.1127 53.9403 72.5155 43.3421 70.2655 33.7837L70.2831 33.8013C67.0225 19.7604 71.0821 14.1499 79.4067 2.67636C79.6006 2.40612 79.8003 2.13 80.0001 1.85388L69.0494 12.8164V12.7811L31.1331 50.9206" fill="white"/>
<path d="M25.675 55.6676C16.4163 46.8142 18.0142 33.1082 25.91 25.2007C31.7496 19.3493 41.3256 16.9641 49.6797 20.4714L58.6564 16.3238C57.0409 15.1547 54.967 13.8974 52.5877 13.0103C41.8426 8.5807 28.9708 10.7838 20.2349 19.5256C11.8339 27.9383 9.19019 40.8748 13.7256 51.9136C17.1154 60.1619 11.5578 66.0015 5.95902 71.8881C3.97332 73.9737 1.98762 76.0651 0.383789 78.2741L25.6633 55.6676" fill="white"/>
</g>
<defs>
<clipPath id="clip0_4948_49">
<rect width="80" height="80" fill="white"/>
</clipPath>
</defs>
</svg>
