<svg width="42" height="42" viewBox="0 0 42 42" fill="none" xmlns="http://www.w3.org/2000/svg">
<path d="M28.1709 27.9707C28.7361 27.9707 29.1943 27.5125 29.1943 26.9472C29.1943 26.382 28.7361 25.9238 28.1709 25.9238C27.6057 25.9238 27.1475 26.382 27.1475 26.9472C27.1475 27.5125 27.6057 27.9707 28.1709 27.9707Z" fill="#FF826E"/>
<path d="M12.0578 32.3164C12.6157 32.226 12.9946 31.7005 12.9042 31.1426C12.8138 30.5847 12.2882 30.2058 11.7303 30.2962C11.1725 30.3866 10.7935 30.9122 10.884 31.4701C10.9744 32.0279 11.5 32.4069 12.0578 32.3164Z" fill="#FF826E"/>
<path d="M7.541 27.9707C8.10622 27.9707 8.56442 27.5125 8.56442 26.9472C8.56442 26.382 8.10622 25.9238 7.541 25.9238C6.97578 25.9238 6.51758 26.382 6.51758 26.9472C6.51758 27.5125 6.97578 27.9707 7.541 27.9707Z" fill="#FF826E"/>
<path d="M28.1709 16.061C28.3733 16.061 28.5712 16.001 28.7395 15.8885C28.9078 15.7761 29.039 15.6162 29.1164 15.4292C29.1939 15.2422 29.2141 15.0364 29.1746 14.8379C29.1351 14.6394 29.0377 14.457 28.8945 14.3139C28.7514 14.1708 28.569 14.0733 28.3705 14.0338C28.172 13.9943 27.9662 14.0146 27.7792 14.0921C27.5922 14.1696 27.4323 14.3007 27.3199 14.4691C27.2075 14.6374 27.1474 14.8352 27.1475 15.0377C27.1475 15.3091 27.2553 15.5694 27.4472 15.7613C27.6392 15.9532 27.8995 16.061 28.1709 16.061Z" fill="#FF826E"/>
<path d="M23.8115 11.7016C24.3767 11.7016 24.8349 11.2434 24.8349 10.6782C24.8349 10.113 24.3767 9.65479 23.8115 9.65479C23.2463 9.65479 22.7881 10.113 22.7881 10.6782C22.7881 11.2434 23.2463 11.7016 23.8115 11.7016Z" fill="#FF826E"/>
<path d="M8.56442 15.0377C8.56444 14.8352 8.50443 14.6374 8.39198 14.4691C8.27954 14.3007 8.11971 14.1696 7.9327 14.0921C7.7457 14.0146 7.53992 13.9943 7.34139 14.0338C7.14286 14.0733 6.9605 14.1708 6.81736 14.3139C6.67422 14.457 6.57674 14.6394 6.53725 14.8379C6.49775 15.0364 6.51802 15.2422 6.59547 15.4292C6.67293 15.6162 6.80411 15.7761 6.97241 15.8885C7.14071 16.001 7.33858 16.061 7.541 16.061C7.81241 16.061 8.07271 15.9532 8.26464 15.7613C8.45657 15.5694 8.5644 15.3091 8.56442 15.0377Z" fill="#FF826E"/>
<path d="M12.0612 11.6895C12.6191 11.5991 12.9981 11.0735 12.9076 10.5156C12.8172 9.95776 12.2916 9.57883 11.7338 9.66926C11.1759 9.7597 10.7969 10.2853 10.8874 10.8431C10.9778 11.401 11.5034 11.7799 12.0612 11.6895Z" fill="#FF826E"/>
<path d="M41.5956 32.5383L38.1265 29.0929C37.9347 28.9024 37.6907 28.773 37.4254 28.7209C37.1601 28.6689 36.8853 28.6965 36.6357 28.8005C36.3861 28.9044 36.1728 29.0799 36.0228 29.3048C35.8728 29.5297 35.7928 29.7941 35.7928 30.0644V30.9158L23.4711 30.9185C23.3359 30.9173 23.2018 30.9428 23.0766 30.9937C22.9514 31.0446 22.8375 31.1198 22.7415 31.2149C22.6455 31.3101 22.5693 31.4233 22.5173 31.5481C22.4653 31.6729 22.4385 31.8067 22.4385 31.9419C22.4385 32.077 22.4653 32.2108 22.5173 32.3356C22.5693 32.4604 22.6455 32.5736 22.7415 32.6688C22.8375 32.7639 22.9514 32.8391 23.0766 32.89C23.2018 32.9409 23.3359 32.9664 23.4711 32.9652L36.8115 32.9626C36.8802 32.9634 36.9487 32.9545 37.015 32.9361C37.2474 32.8901 37.4566 32.7649 37.607 32.5818C37.7574 32.3988 37.8396 32.1693 37.8397 31.9324V31.6928L39.669 33.5098L37.8397 35.3267V35.087C37.8395 34.8466 37.7548 34.614 37.6003 34.4299C37.4458 34.2459 37.2314 34.122 36.9947 34.0802C36.9351 34.0633 36.8732 34.0554 36.8111 34.0568H29.8012C29.666 34.0556 29.5319 34.0812 29.4067 34.1321C29.2815 34.183 29.1676 34.2582 29.0716 34.3533C28.9756 34.4485 28.8994 34.5617 28.8474 34.6864C28.7954 34.8112 28.7686 34.945 28.7686 35.0802C28.7686 35.2154 28.7954 35.3492 28.8474 35.474C28.8994 35.5987 28.9756 35.712 29.0716 35.8071C29.1676 35.9023 29.2815 35.9774 29.4067 36.0283C29.5319 36.0792 29.666 36.1048 29.8012 36.1036H35.7928V36.9551C35.7926 37.2255 35.8726 37.49 36.0225 37.715C36.1725 37.9401 36.3858 38.1157 36.6355 38.2196C36.8852 38.3235 37.1601 38.3512 37.4255 38.299C37.6909 38.2468 37.9348 38.1171 38.1266 37.9264L41.5955 34.4811C41.7236 34.3538 41.8253 34.2025 41.8947 34.0358C41.9641 33.869 41.9999 33.6902 41.9999 33.5096C41.9999 33.329 41.9641 33.1502 41.8947 32.9835C41.8253 32.8168 41.7236 32.6654 41.5955 32.5382L41.5956 32.5383Z" fill="#556181"/>
<path d="M25.0741 35.1326C21.7238 36.8339 17.878 37.2894 14.223 36.418C10.568 35.5466 7.34144 33.4049 5.11913 30.375C2.89681 27.3452 1.82329 23.6243 2.09009 19.8763C2.3569 16.1283 3.94669 12.597 6.57578 9.91254C9.20488 7.22805 12.7023 5.565 16.4439 5.22011C20.1855 4.87523 23.9279 5.87096 27.0035 8.02963C30.079 10.1883 32.2875 13.3695 33.2349 17.0056C34.1823 20.6416 33.807 24.496 32.176 27.8811C32.1177 28.0021 32.0837 28.1335 32.0762 28.2677C32.0686 28.4019 32.0875 28.5362 32.1319 28.6631C32.1762 28.7899 32.2451 28.9068 32.3347 29.0071C32.4242 29.1073 32.5326 29.1889 32.6536 29.2473C32.7747 29.3056 32.9061 29.3395 33.0403 29.3471C33.1744 29.3547 33.3088 29.3357 33.4357 29.2914C33.5625 29.247 33.6794 29.1781 33.7796 29.0886C33.8799 28.9991 33.9615 28.8907 34.0198 28.7696C35.656 25.3758 36.1793 21.5522 35.5154 17.8436C34.8515 14.1349 33.0342 10.7303 30.3223 8.11487C27.6105 5.4994 24.1424 3.80643 20.4122 3.27713C16.6819 2.74783 12.8798 3.4092 9.54735 5.16702C6.21495 6.92485 3.52225 9.68947 1.85285 13.067C0.183457 16.4446 -0.377485 20.2629 0.249934 23.9779C0.877353 27.6929 2.66113 31.1151 5.34716 33.7571C8.03319 36.3991 11.4845 38.1261 15.2093 38.692C16.1077 38.8282 17.0151 38.8967 17.9237 38.8971C20.7317 38.8977 23.4998 38.233 26.0014 36.9576C26.1231 36.8978 26.2317 36.8145 26.3209 36.7124C26.4101 36.6104 26.4782 36.4916 26.5211 36.363C26.5641 36.2344 26.581 36.0985 26.571 35.9633C26.561 35.8281 26.5242 35.6962 26.4628 35.5754C26.4014 35.4545 26.3166 35.347 26.2133 35.2592C26.11 35.1714 25.9903 35.1049 25.8611 35.0638C25.732 35.0226 25.5959 35.0075 25.4608 35.0194C25.3258 35.0312 25.1944 35.0698 25.0744 35.1329L25.0741 35.1326Z" fill="#556181"/>
<path d="M22.3281 26.4877C22.5315 26.4877 22.7304 26.4271 22.8992 26.3136C23.0681 26.2002 23.1993 26.0389 23.2761 25.8505C23.3529 25.6621 23.3718 25.4551 23.3304 25.2559C23.2889 25.0567 23.1891 24.8744 23.0436 24.7322L18.8793 20.6619V16.6034C18.8805 16.4682 18.855 16.3342 18.8041 16.2089C18.7532 16.0837 18.678 15.9698 18.5828 15.8738C18.4877 15.7778 18.3745 15.7016 18.2497 15.6496C18.1249 15.5976 17.9911 15.5708 17.8559 15.5708C17.7208 15.5708 17.5869 15.5976 17.4622 15.6496C17.3374 15.7016 17.2242 15.7778 17.129 15.8738C17.0339 15.9698 16.9587 16.0837 16.9078 16.2089C16.8569 16.3342 16.8314 16.4682 16.8326 16.6034V21.0925C16.8326 21.3489 16.9292 21.5958 17.1033 21.784C17.1081 21.7897 17.1137 21.7956 17.1191 21.8015C17.1245 21.8073 17.1303 21.8137 17.1362 21.8195C17.1378 21.8211 17.1391 21.8228 17.1408 21.8244L21.613 26.1967C21.804 26.3836 22.0608 26.4881 22.3281 26.4877Z" fill="#556181"/>
<path d="M17.8559 11.9881C18.1273 11.9881 18.3876 11.8803 18.5796 11.6883C18.7715 11.4964 18.8793 11.2361 18.8793 10.9647V9.00329C18.8805 8.86812 18.855 8.73406 18.8041 8.60884C18.7532 8.48361 18.678 8.36971 18.5828 8.2737C18.4877 8.1777 18.3745 8.10149 18.2497 8.04949C18.1249 7.99748 17.9911 7.9707 17.8559 7.9707C17.7208 7.9707 17.5869 7.99748 17.4622 8.04949C17.3374 8.10149 17.2242 8.1777 17.129 8.2737C17.0339 8.36971 16.9587 8.48361 16.9078 8.60884C16.8569 8.73406 16.8314 8.86812 16.8326 9.00329V10.9647C16.8326 11.2361 16.9404 11.4964 17.1323 11.6883C17.3242 11.8802 17.5845 11.9881 17.8559 11.9881Z" fill="#556181"/>
<path d="M16.833 31.0206V32.982C16.8318 33.1171 16.8574 33.2512 16.9083 33.3764C16.9592 33.5017 17.0344 33.6156 17.1295 33.7116C17.2247 33.8076 17.3379 33.8838 17.4627 33.9358C17.5874 33.9878 17.7213 34.0146 17.8564 34.0146C17.9916 34.0146 18.1254 33.9878 18.2502 33.9358C18.375 33.8838 18.4882 33.8076 18.5833 33.7116C18.6785 33.6156 18.7537 33.5017 18.8046 33.3764C18.8554 33.2512 18.881 33.1171 18.8798 32.982V31.0206C18.8774 30.7508 18.7685 30.4928 18.5769 30.3029C18.3852 30.1129 18.1263 30.0063 17.8564 30.0063C17.5866 30.0063 17.3277 30.1129 17.136 30.3029C16.9443 30.4928 16.8355 30.7508 16.833 31.0206Z" fill="#556181"/>
<path d="M30.8689 20.9927C30.8689 20.7213 30.7611 20.461 30.5692 20.269C30.3773 20.0771 30.1169 19.9693 29.8455 19.9693H27.8841C27.749 19.9681 27.6149 19.9936 27.4897 20.0445C27.3645 20.0954 27.2506 20.1706 27.1546 20.2658C27.0586 20.3609 26.9824 20.4741 26.9303 20.5989C26.8783 20.7237 26.8516 20.8575 26.8516 20.9927C26.8516 21.1278 26.8783 21.2617 26.9303 21.3864C26.9824 21.5112 27.0586 21.6244 27.1546 21.7196C27.2506 21.8147 27.3645 21.8899 27.4897 21.9408C27.6149 21.9917 27.749 22.0173 27.8841 22.016H29.8455C30.1169 22.016 30.3772 21.9082 30.5692 21.7163C30.7611 21.5244 30.8689 21.2641 30.8689 20.9927Z" fill="#556181"/>
<path d="M7.82794 19.9693H5.86657C5.73141 19.9681 5.59734 19.9936 5.47212 20.0445C5.34689 20.0954 5.23299 20.1706 5.13698 20.2658C5.04098 20.3609 4.96477 20.4741 4.91277 20.5989C4.86076 20.7237 4.83398 20.8575 4.83398 20.9927C4.83398 21.1278 4.86076 21.2617 4.91277 21.3864C4.96477 21.5112 5.04098 21.6244 5.13698 21.7196C5.23299 21.8147 5.34689 21.8899 5.47212 21.9408C5.59734 21.9917 5.73141 22.0173 5.86657 22.016H7.82794C7.9631 22.0173 8.09716 21.9917 8.22239 21.9408C8.34761 21.8899 8.46152 21.8147 8.55752 21.7196C8.65353 21.6244 8.72973 21.5112 8.78174 21.3864C8.83374 21.2617 8.86052 21.1278 8.86052 20.9927C8.86052 20.8575 8.83374 20.7237 8.78174 20.5989C8.72973 20.4741 8.65353 20.3609 8.55752 20.2658C8.46152 20.1706 8.34761 20.0954 8.22239 20.0445C8.09716 19.9936 7.9631 19.9681 7.82794 19.9693Z" fill="#556181"/>
</svg>
