<svg width="42" height="42" viewBox="0 0 42 42" fill="none" xmlns="http://www.w3.org/2000/svg">
<g clip-path="url(#clip0_269_9697)">
<path d="M21 42H4.92188C2.20795 42 0 39.792 0 37.0781V21C0 18.2861 2.20795 16.0781 4.92188 16.0781H15.0015C15.9076 16.0781 16.6421 16.8126 16.6421 17.7188C16.6421 18.6249 15.9076 19.3594 15.0015 19.3594H4.92188C4.01723 19.3594 3.28125 20.0954 3.28125 21V37.0781C3.28125 37.9828 4.01723 38.7188 4.92188 38.7188H21C21.9046 38.7188 22.6406 37.9828 22.6406 37.0781V26.9985C22.6406 26.0924 23.3751 25.3579 24.2812 25.3579C25.1874 25.3579 25.9219 26.0924 25.9219 26.9985V37.0781C25.9219 39.792 23.7139 42 21 42Z" fill="#556181"/>
<path d="M1.64062 12.7969C0.734508 12.7969 0 12.0624 0 11.1562V6.5625C0 2.94394 2.94394 0 6.5625 0H11.1562C12.0624 0 12.7969 0.734508 12.7969 1.64062C12.7969 2.54674 12.0624 3.28125 11.1562 3.28125H6.5625C4.75322 3.28125 3.28125 4.75322 3.28125 6.5625V11.1562C3.28125 12.0624 2.54674 12.7969 1.64062 12.7969Z" fill="#556181"/>
<path d="M24.2812 3.28125H17.7188C16.8126 3.28125 16.0781 2.54674 16.0781 1.64062C16.0781 0.734508 16.8126 0 17.7188 0H24.2812C25.1874 0 25.9219 0.734508 25.9219 1.64062C25.9219 2.54674 25.1874 3.28125 24.2812 3.28125Z" fill="#556181"/>
<path d="M40.3594 12.7969C39.4533 12.7969 38.7188 12.0624 38.7188 11.1562V6.5625C38.7188 4.75322 37.2468 3.28125 35.4375 3.28125H30.8438C29.9376 3.28125 29.2031 2.54674 29.2031 1.64062C29.2031 0.734508 29.9376 0 30.8438 0H35.4375C39.0561 0 42 2.94394 42 6.5625V11.1562C42 12.0624 41.2655 12.7969 40.3594 12.7969Z" fill="#556181"/>
<path d="M35.4375 42H30.8438C29.9376 42 29.2031 41.2655 29.2031 40.3594C29.2031 39.4533 29.9376 38.7188 30.8438 38.7188H35.4375C37.2468 38.7188 38.7188 37.2468 38.7188 35.4375V30.8438C38.7188 29.9376 39.4533 29.2031 40.3594 29.2031C41.2655 29.2031 42 29.9376 42 30.8438V35.4375C42 39.0561 39.0561 42 35.4375 42Z" fill="#556181"/>
<path d="M40.3594 25.9219C39.4533 25.9219 38.7188 25.1874 38.7188 24.2812V17.7188C38.7188 16.8126 39.4533 16.0781 40.3594 16.0781C41.2655 16.0781 42 16.8126 42 17.7188V24.2812C42 25.1874 41.2655 25.9219 40.3594 25.9219Z" fill="#556181"/>
<path d="M33.7969 6.5625H28.875C27.9689 6.5625 27.2344 7.29701 27.2344 8.20312C27.2344 9.10924 27.9689 9.84375 28.875 9.84375H29.8361L12.7969 26.883V25.9219C12.7969 25.0158 12.0624 24.2812 11.1562 24.2812C10.2501 24.2812 9.51562 25.0158 9.51562 25.9219V30.8438C9.51562 31.7499 10.2501 32.4844 11.1562 32.4844H16.0781C16.9842 32.4844 17.7188 31.7499 17.7188 30.8438C17.7188 29.9376 16.9842 29.2031 16.0781 29.2031H15.117L32.1562 12.1639V13.125C32.1562 14.0311 32.8908 14.7656 33.7969 14.7656C34.703 14.7656 35.4375 14.0311 35.4375 13.125V8.20312C35.4375 7.29701 34.703 6.5625 33.7969 6.5625Z" fill="#FF826E"/>
</g>
<defs>
<clipPath id="clip0_269_9697">
<rect width="42" height="42" fill="white"/>
</clipPath>
</defs>
</svg>
