<svg width="42" height="42" viewBox="0 0 42 42" fill="none" xmlns="http://www.w3.org/2000/svg">
<path d="M32.8538 20.6729H32.7224C29.897 20.7385 27.4002 22.3791 26.2832 25.0697C25.2319 27.6291 25.7575 30.451 27.663 32.4197C28.3201 33.076 28.78 33.8634 28.9771 34.6509H32.1968V29.7291L30.6855 28.2197C30.4227 27.9572 30.4227 27.5635 30.6855 27.301C30.9483 27.0385 31.3426 27.0385 31.6054 27.301L32.8538 28.5478L34.1022 27.301C34.3651 27.0385 34.7593 27.0385 35.0221 27.301C35.2849 27.5635 35.2849 27.9572 35.0221 28.2197L33.5109 29.7947V34.7166H36.6648C36.8619 33.9291 37.3218 33.1416 37.9132 32.4853C39.8844 30.451 40.41 27.5635 39.293 24.9385C38.2417 22.3135 35.7449 20.6729 32.8538 20.6729Z" fill="#FF826E"/>
<path d="M36.073 36.0283H29.3709C29.0424 36.0283 28.7139 36.3564 28.7139 36.6846V38.5877C28.7139 38.9158 29.0424 39.2439 29.3709 39.2439H29.8966C30.0937 40.6877 31.3421 41.8033 32.8534 41.8033C34.3646 41.8033 35.613 40.6877 35.8101 39.2439H36.073C36.4672 39.2439 36.73 38.9158 36.73 38.5877V36.6846C36.73 36.2908 36.4672 36.0283 36.073 36.0283Z" fill="#FF826E"/>
<path d="M18.7263 7.15311L16.2294 6.89061C16.098 6.62811 16.0323 6.43124 15.9009 6.23436L17.3464 4.52812C17.5436 4.26562 17.5436 3.87187 17.2807 3.67499L15.1781 1.575C14.981 1.3125 14.5868 1.3125 14.324 1.50937L12.4185 3.08437C12.1557 2.95312 11.9585 2.88749 11.6957 2.82187L11.4986 0.590624C11.4986 0.262499 11.1701 0 10.8415 0H7.88475C7.55622 0 7.29339 0.262499 7.22769 0.590624L6.96486 3.08437C6.70204 3.21562 6.50492 3.28124 6.3078 3.41249L4.53373 1.96875C4.27091 1.77187 3.87667 1.77187 3.67955 2.03437L1.57695 4.13437C1.31413 4.33124 1.31412 4.72499 1.51124 4.98749L3.08819 6.89061C2.95678 7.15311 2.89107 7.34998 2.82537 7.61248L0.591356 7.80936C0.262825 7.87498 0 8.13748 0 8.46561V11.4187C0 11.7469 0.262825 12.0093 0.591356 12.075L3.08819 12.3375C3.1539 12.6 3.28531 12.7968 3.41672 12.9937L1.97119 14.7656C1.77407 15.0281 1.77407 15.4218 2.03689 15.6187L4.13949 17.7187C4.40232 17.9812 4.73085 17.9812 4.99368 17.7843L6.89916 16.2093C7.16198 16.3406 7.3591 16.4062 7.62192 16.4718L7.81904 18.7031C7.81904 19.0312 8.14757 19.2937 8.47611 19.2937H11.4329C11.7614 19.2937 12.0242 19.0312 12.0899 18.7031L12.3528 16.2093C12.5499 16.0781 12.8127 16.0125 13.0098 15.8812L14.7182 17.325C14.981 17.5218 15.3753 17.5218 15.5724 17.2593L17.675 15.1593C17.9378 14.8968 17.9378 14.5687 17.7407 14.3062L16.1637 12.4031C16.2951 12.1406 16.3609 11.9437 16.4266 11.6812L18.6606 11.4844C18.9891 11.4844 19.2519 11.1562 19.2519 10.8281V7.87498C19.3176 7.48123 19.0548 7.21873 18.7263 7.15311ZM8.80464 13.3218C7.42481 12.9937 6.3078 11.8781 5.97927 10.5C5.38791 7.74373 7.75334 5.38124 10.513 5.97186C11.8928 6.29999 13.0098 7.41561 13.3384 8.79373C13.9297 11.55 11.5643 13.9125 8.80464 13.3218Z" fill="#556181"/>
<path d="M41.4607 7.15311L38.9638 6.89061C38.8324 6.62811 38.7667 6.43124 38.6353 6.23436L40.0808 4.52812C40.2779 4.26562 40.2779 3.87187 40.0151 3.67499L37.9125 1.575C37.7154 1.3125 37.3212 1.3125 37.0583 1.50937L35.1529 3.08437C34.89 2.95312 34.6929 2.88749 34.4301 2.82187L34.233 0.590624C34.233 0.262499 33.9044 0 33.5759 0H30.6191C30.2906 0 30.0278 0.262499 29.9621 0.590624L29.6992 3.08437C29.4364 3.21562 29.2393 3.28124 29.0422 3.41249L27.2681 1.96875C27.0053 1.77187 26.611 1.77187 26.4139 2.03437L24.3113 4.13437C24.0485 4.39687 24.0485 4.72499 24.2456 4.98749L25.8226 6.89061C25.6912 7.15311 25.6255 7.34998 25.5597 7.61248L23.3257 7.80936C22.9972 7.87498 22.7344 8.13748 22.7344 8.46561V11.4187C22.7344 11.7469 22.9972 12.0093 23.3257 12.075L25.8226 12.3375C25.8883 12.6 26.0197 12.7968 26.1511 12.9937L24.7056 14.7C24.5084 14.9625 24.5084 15.3562 24.7713 15.5531L26.8739 17.6531C27.1367 17.9156 27.4652 17.9156 27.7281 17.7187L29.6335 16.1437C29.8964 16.275 30.0935 16.3406 30.3563 16.4062L30.5534 18.6375C30.5534 18.9656 30.882 19.2281 31.2105 19.2281H34.1673C34.4958 19.2281 34.7586 18.9656 34.8243 18.6375L35.0872 16.1437C35.2843 16.0125 35.5471 15.9468 35.7442 15.8156L37.4526 17.2593C37.7154 17.4562 38.1096 17.4562 38.3068 17.1937L40.4094 15.0937C40.6722 14.8312 40.6722 14.5031 40.4751 14.2406L38.8981 12.3375C39.0295 12.075 39.0952 11.8781 39.1609 11.6156L41.395 11.4187C41.7235 11.4187 41.9863 11.0906 41.9863 10.7625V7.80936C42.052 7.48123 41.7892 7.21873 41.4607 7.15311ZM31.539 13.3218C30.1592 12.9937 29.0422 11.8781 28.7136 10.5C28.1223 7.74373 30.4877 5.38124 33.2474 5.97186C34.6272 6.29999 35.7442 7.41561 36.0727 8.79373C36.6641 11.55 34.2987 13.9125 31.539 13.3218Z" fill="#556181"/>
<path d="M18.7263 29.9248L16.2294 29.6623C16.098 29.3998 16.0323 29.2029 15.9009 29.006L17.3464 27.2998C17.5436 27.0373 17.5436 26.6435 17.2807 26.4467L15.1781 24.2811C14.9153 24.0186 14.5868 24.0186 14.324 24.2154L12.4185 25.7904C12.1557 25.6592 11.9585 25.5936 11.6957 25.5279L11.4986 23.2967C11.4986 22.9686 11.1701 22.7061 10.8415 22.7061H7.88475C7.55622 22.7061 7.29339 22.9686 7.22769 23.2967L6.96486 25.7904C6.70204 25.9217 6.50492 25.9873 6.3078 26.1185L4.59944 24.6748C4.33661 24.4779 3.94237 24.4779 3.74526 24.7404L1.64266 26.8404C1.31412 27.0373 1.31412 27.431 1.51124 27.6935L3.08819 29.5967C2.95678 29.8592 2.89107 30.056 2.82537 30.3185L0.591356 30.5154C0.262825 30.581 0 30.8435 0 31.2373V34.1904C0 34.5185 0.262825 34.781 0.591356 34.8467L3.08819 35.1092C3.1539 35.3717 3.28531 35.5685 3.41672 35.7654L1.97119 37.4716C1.77407 37.7341 1.77407 38.1279 2.03689 38.3248L4.13949 40.4248C4.40232 40.6873 4.73085 40.6873 4.99368 40.4904L6.89916 38.9154C7.16198 39.0466 7.3591 39.1123 7.62192 39.1779L7.81904 41.4091C7.81904 41.7373 8.14757 41.9998 8.47611 41.9998H11.4329C11.7614 41.9998 12.0242 41.7373 12.0899 41.4091L12.3528 38.9154C12.5499 38.7841 12.8127 38.7185 13.0098 38.5873L14.7182 40.031C14.981 40.2279 15.3753 40.2279 15.5724 39.9654L17.675 37.8654C17.9378 37.6029 17.9378 37.2748 17.7407 37.0123L16.1637 35.1092C16.2951 34.8467 16.3609 34.6498 16.4266 34.3873L18.6606 34.1904C18.9891 34.1904 19.2519 33.8623 19.2519 33.5342V30.581C19.3176 30.1873 19.0548 29.9248 18.7263 29.9248ZM8.80464 36.0279C7.42481 35.6998 6.3078 34.5842 5.97927 33.206C5.38791 30.4498 7.75334 28.0873 10.513 28.6779C11.8928 29.006 13.0098 30.1217 13.3384 31.4998C13.9297 34.256 11.5643 36.6185 8.80464 36.0279Z" fill="#556181"/>
</svg>
