<svg width="437" height="303" viewBox="0 0 437 303" fill="none" xmlns="http://www.w3.org/2000/svg">
<rect width="437" height="302" rx="20" fill="url(#paint0_linear_1829_1501)"/>
<path fill-rule="evenodd" clip-rule="evenodd" d="M128.026 175.131L122.418 178.399C120.525 179.494 119.878 181.942 120.978 183.835L122.213 185.96C123.674 188.473 123.038 189.605 122.585 190.015C121.339 191.131 120.18 192.345 119.02 193.553C118.68 193.903 117.596 195.117 114.744 193.461L112.786 192.329C110.898 191.223 108.45 191.876 107.35 193.763L104.087 199.372C102.987 201.265 103.639 203.708 105.527 204.808L107.463 205.935C110.138 207.488 110.067 208.286 109.733 209.419C109.264 210.977 108.768 212.536 108.429 214.143C108.121 215.578 108.261 216.602 104.621 216.602H102.394C100.204 216.602 98.4192 218.393 98.4192 220.582V227.07C98.4192 229.26 100.204 231.044 102.394 231.044H104.621C108.261 231.044 108.121 232.069 108.429 233.503C108.768 235.116 109.264 236.674 109.733 238.233C110.067 239.365 110.138 240.163 107.463 241.717L105.527 242.844C103.639 243.944 102.987 246.387 104.087 248.28L107.35 253.889C108.45 255.776 110.898 256.423 112.786 255.323L114.744 254.191C117.597 252.529 118.68 253.743 119.02 254.099C120.18 255.307 121.339 256.52 122.585 257.637C123.038 258.041 123.674 259.179 122.213 261.692L120.978 263.817C119.878 265.71 120.525 268.153 122.418 269.259L128.026 272.516C129.914 273.616 132.362 272.969 133.462 271.076L134.697 268.956C136.18 266.406 137.636 266.508 138.251 266.702C140.042 267.274 141.697 267.641 143.542 268.121C144.216 268.299 145.37 268.789 145.37 271.826V274.102C145.37 276.291 147.155 278.076 149.345 278.076H155.832C158.027 278.076 159.807 276.291 159.807 274.102V271.826C159.807 268.79 160.966 268.299 161.64 268.121C163.485 267.641 165.135 267.274 166.925 266.702C167.54 266.508 169.001 266.406 170.484 268.956L171.719 271.076C172.819 272.969 175.268 273.616 177.155 272.516L182.764 269.259C184.657 268.153 185.299 265.71 184.204 263.817L182.963 261.692C181.502 259.179 182.138 258.042 182.591 257.637C183.843 256.521 184.997 255.307 186.161 254.099C186.501 253.743 187.585 252.53 190.438 254.191L192.39 255.323C194.283 256.423 196.726 255.776 197.826 253.889L201.089 248.28C202.189 246.387 201.542 243.944 199.649 242.844L197.713 241.717C195.038 240.163 195.109 239.365 195.448 238.233C195.912 236.674 196.414 235.116 196.753 233.503C197.055 232.069 196.92 231.044 200.555 231.044H202.783C204.977 231.044 206.763 229.26 206.763 227.07V220.582C206.763 218.393 204.978 216.602 202.783 216.602H200.555C196.92 216.602 197.055 215.577 196.753 214.143C196.413 212.536 195.912 210.977 195.448 209.419C195.108 208.286 195.038 207.488 197.713 205.935L199.649 204.808C201.542 203.708 202.189 201.265 201.089 199.372L197.826 193.763C196.727 191.876 194.283 191.223 192.39 192.329L190.438 193.461C187.585 195.117 186.501 193.903 186.161 193.553C184.997 192.345 183.843 191.131 182.591 190.015C182.138 189.605 181.502 188.472 182.963 185.96L184.204 183.835C185.299 181.942 184.657 179.494 182.764 178.399L177.155 175.131C175.268 174.036 172.82 174.678 171.719 176.57L170.484 178.695C169.001 181.246 167.54 181.144 166.925 180.949C165.135 180.378 163.484 180.011 161.64 179.531C160.966 179.353 159.807 178.862 159.807 175.826V173.55C159.807 171.36 158.027 169.575 155.832 169.575H149.345C147.155 169.575 145.37 171.36 145.37 173.55V175.826C145.37 178.862 144.216 179.353 143.542 179.531C141.697 180.011 140.042 180.378 138.251 180.949C137.636 181.144 136.18 181.246 134.697 178.695L133.462 176.57C132.362 174.677 129.914 174.036 128.026 175.131ZM152.591 198.369C166.65 198.369 178.05 209.764 178.05 223.823C178.05 237.888 166.65 249.283 152.591 249.283C138.531 249.283 127.131 237.888 127.131 223.823C127.131 209.764 138.531 198.369 152.591 198.369ZM152.591 192.005C170.166 192.005 184.409 206.253 184.409 223.823C184.409 241.398 170.166 255.647 152.591 255.647C135.015 255.647 120.767 241.399 120.767 223.823C120.767 206.253 135.015 192.005 152.591 192.005Z" fill="#B0B8CF"/>
<path fill-rule="evenodd" clip-rule="evenodd" d="M223.238 242.634L220.158 244.424C219.118 245.028 218.762 246.371 219.371 247.411L220.051 248.582C220.849 249.957 220.498 250.583 220.25 250.804C219.565 251.419 218.934 252.087 218.292 252.745C218.109 252.944 217.51 253.608 215.946 252.696L214.873 252.076C213.832 251.472 212.489 251.828 211.885 252.864L210.095 255.943C209.491 256.984 209.847 258.327 210.888 258.931L211.95 259.545C213.417 260.403 213.379 260.84 213.191 261.46C212.937 262.318 212.662 263.175 212.479 264.06C212.312 264.847 212.387 265.408 210.386 265.408H209.162C207.96 265.408 206.978 266.389 206.978 267.592V271.151C206.978 272.354 207.96 273.335 209.162 273.335H210.386C212.387 273.335 212.312 273.902 212.479 274.689C212.662 275.573 212.937 276.425 213.191 277.283C213.379 277.908 213.417 278.34 211.95 279.197L210.888 279.812C209.847 280.416 209.491 281.759 210.095 282.8L211.885 285.879C212.49 286.92 213.832 287.27 214.873 286.672L215.946 286.046C217.51 285.135 218.109 285.804 218.292 285.998C218.934 286.661 219.565 287.325 220.25 287.939C220.498 288.16 220.848 288.786 220.051 290.166L219.371 291.331C218.762 292.372 219.118 293.715 220.158 294.319L223.238 296.109C224.279 296.713 225.621 296.363 226.225 295.322L226.905 294.152C227.719 292.755 228.517 292.809 228.857 292.917C229.839 293.229 230.745 293.435 231.759 293.699C232.131 293.79 232.762 294.06 232.762 295.732V296.978C232.762 298.186 233.743 299.162 234.946 299.162H238.51C239.713 299.162 240.695 298.186 240.695 296.978V295.732C240.695 294.06 241.326 293.791 241.698 293.699C242.712 293.435 243.618 293.229 244.599 292.917C244.939 292.809 245.742 292.755 246.557 294.152L247.231 295.322C247.835 296.363 249.178 296.713 250.219 296.109L253.298 294.319C254.339 293.715 254.689 292.372 254.085 291.331L253.406 290.166C252.608 288.786 252.958 288.16 253.207 287.939C253.891 287.324 254.528 286.661 255.164 285.998C255.353 285.804 255.946 285.135 257.51 286.046L258.583 286.672C259.624 287.27 260.967 286.92 261.571 285.879L263.361 282.8C263.965 281.759 263.609 280.416 262.574 279.812L261.512 279.197C260.039 278.34 260.077 277.908 260.266 277.283C260.519 276.425 260.795 275.573 260.978 274.689C261.15 273.902 261.075 273.335 263.07 273.335H264.295C265.497 273.335 266.479 272.354 266.479 271.151V267.592C266.479 266.389 265.497 265.408 264.295 265.408H263.07C261.075 265.408 261.15 264.847 260.978 264.06C260.795 263.175 260.519 262.318 260.266 261.46C260.077 260.84 260.039 260.403 261.512 259.545L262.574 258.931C263.61 258.326 263.965 256.984 263.361 255.943L261.571 252.864C260.967 251.828 259.624 251.472 258.583 252.076L257.51 252.696C255.946 253.608 255.353 252.944 255.164 252.745C254.528 252.087 253.891 251.418 253.207 250.804C252.959 250.582 252.608 249.957 253.406 248.582L254.085 247.411C254.689 246.371 254.339 245.028 253.298 244.424L250.219 242.634C249.178 242.029 247.835 242.385 247.231 243.426L246.557 244.591C245.742 245.988 244.939 245.934 244.599 245.826C243.618 245.513 242.712 245.314 241.698 245.044C241.326 244.952 240.695 244.683 240.695 243.011V241.765C240.695 240.562 239.713 239.581 238.51 239.581H234.946C233.743 239.581 232.762 240.562 232.762 241.765V243.011C232.762 244.683 232.131 244.952 231.759 245.044C230.745 245.314 229.839 245.513 228.857 245.826C228.517 245.934 227.719 245.988 226.905 244.591L226.225 243.426C225.621 242.385 224.279 242.03 223.238 242.634ZM236.731 255.393C244.448 255.393 250.71 261.649 250.71 269.372C250.71 277.094 244.448 283.355 236.731 283.355C229.008 283.355 222.748 277.094 222.748 269.372C222.748 261.649 229.008 255.393 236.731 255.393ZM236.731 251.898C246.379 251.898 254.204 259.724 254.204 269.372C254.204 279.02 246.379 286.845 236.731 286.845C227.078 286.845 219.253 279.02 219.253 269.372C219.253 259.724 227.078 251.898 236.731 251.898Z" fill="#B0B8CF"/>
<path d="M296.989 245.184L296.989 245.184L316.824 40.2583C317.636 31.8884 311.426 25 303.037 25H208.489C200.177 25 192.76 31.7694 191.956 40.0652L191.956 40.0654L172.121 244.991C172.121 244.991 172.121 244.991 172.121 244.991C171.31 253.361 177.52 260.249 185.908 260.249H280.462C288.769 260.249 296.185 253.48 296.989 245.184Z" fill="#1B2452" stroke="#1B2452" stroke-width="2"/>
<path fill-rule="evenodd" clip-rule="evenodd" d="M208.289 28.0222H302.843C309.52 28.0222 314.454 33.4851 313.807 40.1617L293.972 245.087C293.325 251.763 287.333 257.227 280.657 257.227H186.103C179.427 257.227 174.492 251.764 175.139 245.087L194.974 40.1617C195.621 33.4854 201.613 28.0222 208.289 28.0222Z" fill="#F3EBF4"/>
<path fill-rule="evenodd" clip-rule="evenodd" d="M207.809 33H226.856C227.509 35.8206 229.968 37.8752 233.085 37.8752H276.137C279.254 37.8752 282.118 35.8206 283.309 33H302.363C306.299 33 309.212 36.2249 308.829 40.1619L288.994 245.087C288.611 249.024 285.078 252.249 281.136 252.249H186.582C182.645 252.249 179.739 249.024 180.116 245.087L199.956 40.1619C200.334 36.2249 203.872 33 207.809 33Z" fill="#F9A532"/>
<path fill-rule="evenodd" clip-rule="evenodd" d="M236.418 31.1018H274.12C275.176 31.1018 275.959 31.9647 275.856 33.0217V33.0272C275.754 34.0842 274.805 34.9471 273.747 34.9471H236.045C234.989 34.9471 234.207 34.0842 234.309 33.0272V33.0217C234.411 31.9644 235.361 31.1018 236.418 31.1018Z" fill="#F0613D"/>
<path fill-rule="evenodd" clip-rule="evenodd" d="M263.107 58.2498H298.496C299.073 58.2498 299.482 58.9131 299.412 59.7221L293.566 122.647C293.491 123.461 292.951 124.124 292.374 124.124H256.991C256.409 124.124 255.999 123.461 256.074 122.647L261.921 59.7221C261.996 58.9131 262.53 58.2498 263.107 58.2498Z" fill="#F0593E"/>
<path fill-rule="evenodd" clip-rule="evenodd" d="M206.951 58.2498H256.604C257.413 58.2498 258.017 58.9131 257.936 59.7221L252.095 122.647C252.02 123.461 251.292 124.124 250.483 124.124H200.83C200.021 124.124 199.417 123.461 199.493 122.647L205.339 59.7221C205.414 58.9131 206.137 58.2498 206.951 58.2498Z" fill="#F0593E"/>
<path fill-rule="evenodd" clip-rule="evenodd" d="M199.546 128.989H292.332C292.687 128.989 292.952 129.28 292.92 129.636L292.418 134.98C292.386 135.336 292.067 135.628 291.717 135.628H198.932C198.576 135.628 198.312 135.336 198.349 134.98L198.845 129.636C198.878 129.28 199.191 128.989 199.546 128.989Z" fill="#F0593E"/>
<path fill-rule="evenodd" clip-rule="evenodd" d="M198.447 140.837H291.232C291.582 140.837 291.852 141.128 291.814 141.484L291.318 146.828C291.286 147.184 290.968 147.476 290.617 147.476H197.832C197.476 147.476 197.212 147.184 197.244 146.828L197.745 141.484C197.778 141.128 198.091 140.837 198.447 140.837Z" fill="#F0593E"/>
<path fill-rule="evenodd" clip-rule="evenodd" d="M197.347 152.69H290.132C290.482 152.69 290.747 152.976 290.714 153.332L290.218 158.682C290.186 159.032 289.868 159.324 289.512 159.324H196.732C196.376 159.324 196.112 159.032 196.144 158.682L196.641 153.332C196.678 152.976 196.991 152.69 197.347 152.69Z" fill="#F0593E"/>
<path fill-rule="evenodd" clip-rule="evenodd" d="M196.247 164.539H289.032C289.382 164.539 289.647 164.824 289.615 165.181L289.118 170.53C289.086 170.881 288.768 171.172 288.412 171.172H195.632C195.277 171.172 195.012 170.881 195.044 170.53L195.541 165.181C195.573 164.824 195.891 164.539 196.247 164.539Z" fill="#F0593E"/>
<path fill-rule="evenodd" clip-rule="evenodd" d="M195.146 176.387H287.925C288.281 176.387 288.545 176.678 288.513 177.029L288.017 182.379C287.985 182.734 287.667 183.026 287.311 183.026H194.531C194.175 183.026 193.911 182.734 193.943 182.379L194.44 177.029C194.472 176.678 194.79 176.387 195.146 176.387Z" fill="#9588C0"/>
<path fill-rule="evenodd" clip-rule="evenodd" d="M194.046 188.235H286.826C287.181 188.235 287.446 188.527 287.414 188.882L286.917 194.227C286.885 194.583 286.567 194.869 286.211 194.869H193.431C193.075 194.869 192.811 194.583 192.843 194.227L193.339 188.882C193.372 188.527 193.69 188.235 194.046 188.235Z" fill="#9588C0"/>
<path fill-rule="evenodd" clip-rule="evenodd" d="M282.118 64.9963H350.398C355.883 64.9963 360.035 69.618 359.512 75.0648L348.947 184.174C348.44 189.4 343.851 193.585 338.609 193.585H270.329C264.845 193.585 260.692 188.969 261.221 183.522L271.78 74.4121C272.287 69.1865 276.876 64.9963 282.118 64.9963Z" fill="#1B2452"/>
<path fill-rule="evenodd" clip-rule="evenodd" d="M282.118 68.4048H350.398C353.882 68.4048 356.46 71.2522 356.12 74.7361L345.561 183.846C345.221 187.329 342.093 190.182 338.609 190.182H270.329C266.845 190.182 264.273 187.329 264.607 183.846L275.166 74.7361C275.506 71.2522 278.634 68.4048 282.118 68.4048Z" fill="#F9A532"/>
<path fill-rule="evenodd" clip-rule="evenodd" d="M287.064 80.0154H343.204C345.771 80.0154 347.664 82.1135 347.416 84.6803C347.168 87.2474 344.865 89.3452 342.303 89.3452H286.163C283.596 89.3452 281.703 87.2474 281.951 84.6803C282.199 82.1132 284.497 80.0154 287.064 80.0154Z" fill="white"/>
<path fill-rule="evenodd" clip-rule="evenodd" d="M277.334 108.7H291.469L290.104 122.841H275.964L277.334 108.7ZM333.242 108.7H347.382L346.012 122.841H331.872L333.242 108.7ZM314.604 108.7H328.744L327.374 122.841H313.234L314.604 108.7ZM295.972 108.7H310.106L308.737 122.841H294.602L295.972 108.7Z" fill="#F0593E"/>
<path fill-rule="evenodd" clip-rule="evenodd" d="M276.142 131.928H344.071L340.868 165.014H272.938L276.142 131.928Z" fill="#F0593E"/>
<path d="M226.477 53.2698L226.477 53.2701C229.808 56.8488 231.269 61.6137 230.807 66.4185L230.807 66.4191L220.35 174.482L220.35 174.483C219.394 184.309 210.664 192.314 200.776 192.314H92.7129C88.0588 192.314 83.6241 190.519 80.419 187.072M226.477 53.2698L81.1505 186.391M226.477 53.2698C223.272 49.8293 218.833 48.0278 214.183 48.0278H106.12C96.2326 48.0278 87.4955 56.0329 86.5456 65.8596L226.477 53.2698ZM80.419 187.072C80.4187 187.072 80.4185 187.072 80.4182 187.072L81.1505 186.391M80.419 187.072C80.4192 187.073 80.4195 187.073 80.4197 187.073L81.1505 186.391M80.419 187.072C77.0813 183.498 75.6213 178.728 76.0835 173.923L76.0836 173.923L86.5456 65.8597L87.541 65.9559L77.0789 174.019C76.642 178.56 78.0225 183.042 81.1505 186.391" fill="#1B2452" stroke="#1B2452" stroke-width="2"/>
<path fill-rule="evenodd" clip-rule="evenodd" d="M106.12 50.9207H214.183C222.552 50.9207 228.738 57.7696 227.929 66.1397L217.467 174.203C216.658 182.573 209.146 189.422 200.771 189.422H92.7126C84.3429 189.422 78.1517 182.573 78.9662 174.203L89.4231 66.1397C90.2372 57.7699 97.7496 50.9207 106.12 50.9207Z" fill="#F9A532"/>
<path fill-rule="evenodd" clip-rule="evenodd" d="M106.12 50.9207H214.183C222.553 50.9207 228.739 57.7696 227.93 66.1397L227.304 72.6111H88.7979L89.4235 66.1397C90.2376 57.7699 97.75 50.9207 106.12 50.9207Z" fill="#F0613D"/>
<path fill-rule="evenodd" clip-rule="evenodd" d="M120.185 59.8623H211.314C212.835 59.8623 213.957 61.1027 213.811 62.6234C213.66 64.1387 212.301 65.3791 210.78 65.3791H119.651C118.136 65.3791 117.014 64.1387 117.159 62.6234C117.31 61.1027 118.67 59.8623 120.185 59.8623ZM106.525 58.4817C108.838 58.4817 110.532 60.3583 110.305 62.6667C110.084 64.9803 108.029 66.8517 105.716 66.8517C103.403 66.8517 101.714 64.9803 101.935 62.6667C102.162 60.3583 104.217 58.4817 106.525 58.4817Z" fill="#F3EBF4"/>
<path fill-rule="evenodd" clip-rule="evenodd" d="M102.366 85.689H141.983L138.008 126.783H98.3918L102.366 85.689Z" fill="#FDECC6"/>
<path fill-rule="evenodd" clip-rule="evenodd" d="M150.606 85.7642H190.222L186.248 126.858H146.626L150.606 85.7642Z" fill="#FDECC6"/>
<path fill-rule="evenodd" clip-rule="evenodd" d="M98.0458 132.645H137.662L133.682 173.739H94.0658L98.0458 132.645Z" fill="#FDECC6"/>
<path fill-rule="evenodd" clip-rule="evenodd" d="M149.118 135.342H209.809C210.537 135.342 211.082 135.94 211.012 136.674V136.679C210.936 137.407 210.284 138.006 209.55 138.006H148.859C148.125 138.006 147.586 137.407 147.656 136.679V136.674C147.726 135.94 148.384 135.342 149.118 135.342ZM146.076 166.739H206.768C207.501 166.739 208.041 167.338 207.971 168.065C207.901 168.799 207.243 169.398 206.509 169.398H145.823C145.089 169.398 144.544 168.799 144.62 168.065C144.69 167.338 145.348 166.739 146.076 166.739ZM147.09 156.271H207.782C208.515 156.271 209.054 156.87 208.984 157.603C208.914 158.337 208.256 158.935 207.523 158.935H146.831C146.103 158.935 145.558 158.337 145.634 157.603C145.704 156.87 146.362 156.271 147.09 156.271ZM148.104 145.809H208.796C209.529 145.809 210.068 146.408 209.998 147.141C209.928 147.875 209.27 148.473 208.537 148.473H147.845C147.112 148.473 146.573 147.875 146.642 147.141C146.713 146.408 147.371 145.809 148.104 145.809Z" fill="#FDECC6"/>
<path d="M329.049 180.167L329.049 180.167C329.323 177.311 326.984 175.073 324.237 175.073H148.622C146.074 175.073 143.702 176.967 143.448 179.608L139.56 219.779C139.56 219.779 139.56 219.779 139.56 219.779C139.28 222.636 141.626 224.879 144.372 224.879H319.982C322.53 224.879 324.902 222.979 325.155 220.344L329.049 180.167Z" fill="#1B2452" stroke="#1B2452"/>
<path fill-rule="evenodd" clip-rule="evenodd" d="M148.622 178.005H324.237C325.375 178.005 326.227 178.852 326.13 179.887L322.236 220.064C322.139 221.1 321.125 221.946 319.982 221.946H144.372C143.229 221.946 142.377 221.1 142.48 220.064L146.368 179.887C146.465 178.852 147.484 178.005 148.622 178.005Z" fill="#F3EBF4"/>
<path fill-rule="evenodd" clip-rule="evenodd" d="M208.947 192.124H303.372C307.692 192.124 310.878 195.656 310.463 199.97C310.043 204.285 306.171 207.817 301.856 207.817H207.432C203.112 207.817 199.925 204.285 200.345 199.97C200.761 195.656 204.633 192.124 208.947 192.124Z" fill="#F59B1D"/>
<path fill-rule="evenodd" clip-rule="evenodd" d="M104.733 130.93C107.236 128.589 114.203 126.017 118.356 124.744C122.697 124.178 127.443 123.941 132.582 124.016C141.281 123.935 150.632 124.027 160.631 124.291C159.698 120.079 159.612 113.829 160.356 105.535C161.92 104.79 163.856 104.591 166.158 104.947C169.443 122.345 168.639 130.407 166.018 134.392C158.609 136.399 151.479 137.488 146.038 138.022C144.484 147.999 143.304 157.62 142.505 166.879C144.156 176.64 144.943 183.285 144.856 186.817C129.616 189.066 117.385 189.13 108.158 186.995C108.422 184.202 109.571 180.281 110.277 177.277C109.269 164.76 107.662 156.627 106.799 150.841C101.298 161.956 96.4335 167.726 92.211 168.152C88.6299 167.429 84.7633 158.698 80.6106 141.964C81.8133 140.254 83.415 139.559 85.4157 139.877C89.9727 146.602 92.599 151.482 93.2946 154.513C96.5737 143.679 99.858 137.191 104.733 130.93Z" fill="#F0613D"/>
<path fill-rule="evenodd" clip-rule="evenodd" d="M130.631 122.415C129.698 121.973 124.607 122.065 119.516 123.111C120.066 122.285 120.493 121.212 120.8 119.891C129.881 118.526 128.991 116.283 128.657 115.258C126.824 110.389 125.718 107.309 127.034 105.848C127.713 106.166 129.137 106.905 129.693 109.051C130.264 108.701 130.998 108.247 131.09 107.595C131.305 105.648 131.235 101.587 133.468 101.247C133.91 103.032 134.298 104.925 134.643 106.926C135.916 107.951 136.045 112.055 135.274 116.849C136.014 119.491 134.46 121.072 130.61 121.589L130.631 122.415Z" fill="#F9B08C"/>
<path fill-rule="evenodd" clip-rule="evenodd" d="M128.657 115.258C128.991 116.283 129.881 118.526 120.8 119.891C116.744 119.277 113.147 115.933 112.57 114.423C107.264 105.557 112.192 101.312 114.878 99.7C115.472 90.5158 129.25 97.6345 135.56 92.7861C138.445 96.2377 135.512 101.027 133.468 101.248C131.235 101.587 131.305 105.648 131.089 107.595C130.998 108.248 130.264 108.701 129.692 109.051C129.137 106.905 127.713 106.166 127.034 105.848C125.718 107.309 126.824 110.389 128.657 115.258Z" fill="#1B2452"/>
<path fill-rule="evenodd" clip-rule="evenodd" d="M119.516 123.11C119.009 123.59 118.513 124.162 118.049 124.842L118.356 124.745C122.579 124.195 127.184 123.952 132.168 124.011C131.671 123.358 131.127 122.803 130.631 122.415C129.698 121.972 124.607 122.064 119.516 123.11Z" fill="#BC772A"/>
<path fill-rule="evenodd" clip-rule="evenodd" d="M165.744 104.888C165.614 101.447 165.657 98.853 164.886 96.6582C163.376 95.3154 163.786 94.2045 162.114 93.7999C160.243 89.8845 160.448 89.2645 160.421 87.8245C158.258 88.1157 158.555 91.1195 160.594 96.6957C160.966 100.029 160.135 101.004 158.097 99.6294C157.272 97.3536 155.967 96.8036 155.05 96.9599C155.152 97.2619 155.805 98.5833 156.722 100.832C157.952 102.692 159.219 104.214 160.087 104.558C160.432 104.758 160.643 105.017 160.821 105.335C162.201 104.796 163.84 104.645 165.744 104.888Z" fill="#F9B08C"/>
<path fill-rule="evenodd" clip-rule="evenodd" d="M84.7741 139.812C84.6285 137.714 85.432 136.102 85.3406 131.545C84.0084 131.637 83.4313 132.958 83.5986 135.509C82.0455 133.95 81.3496 132.359 81.5117 130.73C81.4846 129.808 81.4846 129.086 81.501 128.557C79.3222 127.894 78.0872 130.099 77.796 135.158C78.1951 136.657 79.1765 137.601 79.6997 138.809C80.1095 139.596 80.487 140.421 80.8752 141.608C81.9106 140.33 83.2101 139.731 84.7741 139.812Z" fill="#F9B08C"/>
<path fill-rule="evenodd" clip-rule="evenodd" d="M109.372 187.259C107.549 199.614 106.698 219.083 106.816 237.861C105.058 246.781 105.15 261.029 107.091 289.929C110.526 290.62 113.498 290.76 116.016 290.339C120.482 263.369 122.191 249.315 121.134 238.858C122.504 231.351 124.375 217.572 126.753 206.835C129.137 217.573 131.008 231.351 132.373 238.858C131.321 249.315 133.026 263.369 137.496 290.339C140.009 290.76 142.986 290.62 146.422 289.929C148.363 261.029 148.455 246.781 146.691 237.861C146.815 218.91 145.947 199.263 144.086 186.93C129.855 188.974 118.287 189.087 109.372 187.259Z" fill="#1B2452"/>
<path fill-rule="evenodd" clip-rule="evenodd" d="M138.99 295.533C138.143 296.196 137.939 299.281 138.628 301.621C141.427 302.872 144.162 302.543 146.826 301.249C148.174 300.726 149.797 299.842 149.77 298.871C149.705 297.032 149.668 296.989 145.888 295.036C145.947 295.409 146.006 295.749 146.076 296.066C145.909 296.503 145.575 296.827 144.944 296.422C144.253 295.969 144.491 294.503 142.522 294.47C140.899 294.443 140.882 295.996 140.09 296.514C139.222 297.124 139.028 296.218 138.99 295.533Z" fill="#071023"/>
<path fill-rule="evenodd" clip-rule="evenodd" d="M114.603 295.527C115.455 296.191 115.654 299.27 114.969 301.616C112.165 302.867 109.431 302.538 106.767 301.244C106.357 301.044 104.729 300.521 104.599 300.073C104.141 298.499 104.534 296.401 107.705 295.026C107.651 295.403 107.586 295.743 107.522 296.061C107.684 296.492 108.018 296.821 108.649 296.412C109.339 295.959 109.107 294.497 111.07 294.465C112.693 294.438 112.71 295.991 113.502 296.509C114.377 297.113 114.565 296.207 114.603 295.527Z" fill="#071023"/>
<path fill-rule="evenodd" clip-rule="evenodd" d="M138.931 290.512C139.222 292.804 139.303 294.767 139.168 296.401C139.319 296.714 139.594 296.859 140.09 296.514C140.882 295.997 140.899 294.443 142.522 294.47C144.49 294.503 144.253 295.97 144.944 296.423C145.575 296.827 145.909 296.503 146.076 296.067C145.774 294.659 145.591 292.669 145.526 290.102C143.083 290.533 140.883 290.668 138.931 290.512Z" fill="#FAB688"/>
<path fill-rule="evenodd" clip-rule="evenodd" d="M114.668 290.506C114.371 292.798 114.29 294.761 114.425 296.395C114.274 296.708 113.999 296.854 113.503 296.509C112.71 295.991 112.694 294.438 111.071 294.465C109.108 294.497 109.34 295.959 108.649 296.412C108.018 296.822 107.684 296.492 107.522 296.061C107.824 294.648 108.008 292.664 108.067 290.091C110.51 290.528 112.71 290.663 114.668 290.506Z" fill="#FAB688"/>
<path fill-rule="evenodd" clip-rule="evenodd" d="M146.038 138.022C142.166 150.404 139.561 159.976 138.24 166.739C133.279 170.185 129.8 172.72 127.804 174.348C134.821 170.39 139.135 167.931 140.748 166.971C142.403 171.064 143.773 177.681 144.857 186.817C144.943 183.285 144.156 176.64 142.506 166.879C143.309 157.614 144.485 147.999 146.038 138.022ZM91.2624 162.187C91.7636 158.509 92.4434 155.953 93.2953 154.513C93.1067 153.683 92.7725 152.712 92.2923 151.606C91.203 155.986 90.8629 159.512 91.2624 162.187ZM160.631 124.291C162.584 125.003 164.077 125.807 165.113 126.708C163.311 125.1 161.71 123.715 160.313 122.55C160.405 123.164 160.507 123.747 160.631 124.291ZM106.082 146.079C106.136 147.082 106.373 148.667 106.799 150.841C107.662 156.627 109.269 164.76 110.278 177.277C109.577 180.281 108.422 184.201 108.158 186.995C108.353 187.043 108.547 187.086 108.746 187.13C109.172 185.08 110.11 182.244 111.572 178.609C112.16 179.013 113.848 179.628 116.631 180.453C115.411 179.369 114.193 178.323 112.985 177.309C110.844 165.116 108.541 154.708 106.082 146.079Z" fill="#EA7924"/>
<path fill-rule="evenodd" clip-rule="evenodd" d="M186.779 191.126C189.562 194.621 188.737 199.981 184.94 203.099C181.51 205.919 176.834 205.94 173.911 203.352L173.858 203.395C173.642 203.573 173.34 203.551 173.183 203.357L169.673 206.237C169.829 206.436 169.786 206.744 169.57 206.916L163.951 211.533C163.735 211.711 163.428 211.695 163.271 211.495L162.252 210.217C162.096 210.017 162.144 209.71 162.355 209.532L167.98 204.915C168.195 204.738 168.497 204.759 168.654 204.953L172.164 202.074C172.003 201.874 172.051 201.572 172.267 201.394L172.321 201.351C170.439 197.9 171.442 193.262 174.872 190.447C178.668 187.324 183.996 187.631 186.779 191.126ZM185.35 192.296C183.15 189.529 178.922 189.287 175.912 191.762C172.908 194.232 172.251 198.482 174.456 201.248C176.662 204.02 180.884 204.258 183.894 201.788C186.903 199.318 187.556 195.068 185.35 192.296Z" fill="#1B2452"/>
<defs>
<linearGradient id="paint0_linear_1829_1501" x1="218.5" y1="302" x2="218.5" y2="0" gradientUnits="userSpaceOnUse">
<stop stop-color="#FDECC6" stop-opacity="0"/>
<stop offset="1" stop-color="#FDECC6"/>
</linearGradient>
</defs>
</svg>
