<svg xmlns="http://www.w3.org/2000/svg" width="41" height="41" viewBox="0 0 41 41">
  <g id="wts_ic" transform="translate(-4235 -7547)">
    <circle id="Ellipse_1995" data-name="Ellipse 1995" cx="20.5" cy="20.5" r="20.5" transform="translate(4235 7547)" fill="#25d366"/>
    <g id="whatsapp_1_" data-name="whatsapp (1)" transform="translate(4244.96 7555.961)">
      <path id="Path_111772" data-name="Path 111772" d="M16.532,13.637l-.008.069c-2.013-1-2.219-1.137-2.484-.747-.18.27-.7.883-.864,1.064s-.32.193-.591.069a7.429,7.429,0,0,1-2.2-1.359,8.3,8.3,0,0,1-1.518-1.9c-.269-.467.293-.529.8-1.5a.5.5,0,0,0-.023-.48c-.069-.138-.615-1.483-.844-2.019s-.446-.467-.615-.467a1.363,1.363,0,0,0-1.252.315c-1.477,1.624-1.1,3.3.159,5.081,2.485,3.252,3.808,3.853,6.229,4.681a3.787,3.787,0,0,0,1.721.111,2.818,2.818,0,0,0,1.845-1.305,2.265,2.265,0,0,0,.165-1.3c-.068-.124-.248-.193-.522-.315Z" transform="translate(-0.505 -0.541)" fill="#fff"/>
      <path id="Path_111773" data-name="Path 111773" d="M18.784,3.153A10.988,10.988,0,0,0,.092,10.887a10.835,10.835,0,0,0,1.46,5.443L0,21.969l5.8-1.518A10.958,10.958,0,0,0,21.97,10.892a10.8,10.8,0,0,0-3.2-7.7Zm1.357,7.707A9.114,9.114,0,0,1,6.4,18.647l-.327-.2-3.433.892.92-3.336-.218-.343a9.079,9.079,0,0,1,14.141-11.2,8.96,8.96,0,0,1,2.662,6.4Z" transform="translate(0 0)" fill="#fff"/>
    </g>
  </g>
</svg>
