<svg width="80" height="80" viewBox="0 0 80 80" fill="none" xmlns="http://www.w3.org/2000/svg">
<g clip-path="url(#clip0_4946_8)">
<path d="M58.8782 49.3794L61.1891 43.6173H67.8626L64.6954 34.8756L68.6563 25L80.0001 54.6993H71.6344L69.6954 49.3794H58.8782Z" fill="white"/>
<path d="M51.7407 54.6993L63.8845 25H55.8345L47.5266 44.192L41.6188 25H35.4298L29.0876 44.192L24.6141 35.4472L20.5657 47.7432L24.6766 54.6993H32.6001L38.3313 37.4886L43.8001 54.6993H51.7407Z" fill="#5A0FC8"/>
<path d="M7.6422 44.5032H12.6016C13.9558 44.522 15.3062 44.3555 16.6141 44.0086L17.8969 40.1123L21.4813 29.2229C21.2058 28.7932 20.892 28.3884 20.5438 28.0135C18.7063 26.0045 16.0146 25 12.4688 25H0V54.6993H7.6422V44.5032ZM14.2047 31.8328C14.9235 32.5456 15.2828 33.5003 15.2828 34.6969C15.2828 35.8935 14.9672 36.8492 14.336 37.5641C13.6432 38.3488 12.3672 38.7411 10.5078 38.7411H7.6422V30.7621H10.5297C12.2599 30.7621 13.4854 31.119 14.2063 31.8328H14.2047Z" fill="white"/>
</g>
<defs>
<clipPath id="clip0_4946_8">
<rect width="80" height="80" fill="white"/>
</clipPath>
</defs>
</svg>
