<svg width="42" height="42" viewBox="0 0 42 42" fill="none" xmlns="http://www.w3.org/2000/svg">
<path d="M36.5647 19.1582C36.3856 19.5225 36.0229 19.7488 35.6178 19.7488H35.1142V27.3558C35.1142 27.7182 34.8203 28.012 34.4579 28.012H30.8631C30.5006 28.012 30.2068 27.7182 30.2068 27.3558V19.7488H29.7037C29.2986 19.7488 28.9353 19.5225 28.7563 19.1581C28.5785 18.7962 28.622 18.372 28.8698 18.0514L31.827 14.2244C32.0281 13.9642 32.332 13.815 32.6605 13.815C32.9891 13.815 33.2931 13.9642 33.4941 14.2244L36.4514 18.0514C36.6992 18.372 36.7426 18.7961 36.5647 19.1582ZM32.556 30.4302C33.2612 31.6521 32.8412 33.2197 31.6196 33.9248L21.467 39.7863C20.8428 40.1467 20.166 40.3275 19.4459 40.3275C19.0994 40.3275 18.743 40.2857 18.3775 40.2019L14.3176 39.2711C13.2748 39.0318 12.44 39.209 11.5097 39.8796L11.5722 40.1125C11.6463 40.3894 11.6081 40.679 11.4645 40.928C11.3207 41.177 11.089 41.3551 10.812 41.4293L9.12559 41.8812C9.03331 41.906 8.93955 41.9182 8.84644 41.9182C8.66015 41.9182 8.47599 41.8691 8.30996 41.7732C8.06099 41.6294 7.88307 41.3978 7.80891 41.1209L5.36389 31.9961C5.21049 31.4234 5.55157 30.8326 6.12415 30.6793L7.81055 30.2273C8.38329 30.0744 8.974 30.4151 9.1274 30.9877L9.13798 31.0273L10.822 29.7376C11.7169 29.0522 12.7375 28.7799 13.8554 28.9278C13.8845 28.9317 13.9133 28.9374 13.9416 28.9452L21.0294 30.8744C21.7378 31.0673 22.3302 31.5269 22.6974 32.1688C22.846 32.4284 22.9493 32.7048 23.0079 32.9886L29.0615 29.4938C29.6514 29.1531 30.3406 29.0634 31.0021 29.2404C31.6637 29.4177 32.2156 29.8402 32.556 30.4302ZM31.4193 31.0864C31.2541 30.8001 30.9852 30.5948 30.6624 30.5082C30.3394 30.4218 30.0041 30.4652 29.7177 30.6304L22.8555 34.5922C22.4265 35.6321 21.4057 36.2982 20.3037 36.2984C20.0644 36.2984 19.8214 36.267 19.5795 36.2011L15.8129 35.1759C15.4956 35.0895 15.2733 34.7871 15.3137 34.4607C15.3642 34.0539 15.7574 33.8004 16.138 33.9042L19.9242 34.9347C20.2951 35.0356 20.6849 34.985 21.0221 34.7922C21.3592 34.5995 21.6004 34.2889 21.7014 33.918C21.8022 33.5478 21.7513 33.1581 21.5582 32.8205C21.3651 32.483 21.0548 32.2415 20.6847 32.1407L13.6413 30.2237C12.8876 30.1333 12.226 30.3155 11.6201 30.7797L9.50556 32.399L11.1516 38.5421C12.2529 37.8716 13.3492 37.7026 14.6111 37.9918L18.6709 38.9226C19.4738 39.1065 20.174 39.0173 20.8109 38.6497L30.9635 32.7882C31.5583 32.4447 31.7628 31.6814 31.4193 31.0864ZM22.678 28.0121H26.2728C26.6352 28.0121 26.9291 27.7183 26.9291 27.3558V16.0467H27.4321C27.8372 16.0467 28.2006 15.8203 28.3796 15.4559C28.5575 15.0939 28.514 14.6698 28.2662 14.3491L25.3088 10.522C25.1094 10.2639 24.8016 10.1128 24.4754 10.1128C24.1469 10.1128 23.8431 10.2619 23.6419 10.5222L20.6846 14.3491C20.4368 14.6698 20.3934 15.0939 20.5712 15.4559C20.7502 15.8203 21.113 16.0467 21.5181 16.0467H22.0216V27.3558C22.0217 27.7183 22.3156 28.0121 22.678 28.0121ZM13.3331 21.2298H13.8366V27.3558C13.8366 27.7183 14.1304 28.0121 14.4928 28.0121H18.0877C18.4501 28.0121 18.7439 27.7183 18.7439 27.3558V21.2298H19.2469C19.652 21.2298 20.0154 21.0034 20.1945 20.639C20.3723 20.277 20.3288 19.8529 20.081 19.5323L17.1388 15.7248C16.9628 15.497 16.7067 15.3377 16.4209 15.3036C16.0432 15.2586 15.6842 15.411 15.4568 15.7054L12.4996 19.5321C12.2518 19.8528 12.2082 20.2769 12.386 20.6389C12.565 21.0035 12.9279 21.2298 13.3331 21.2298Z" fill="#556181"/>
<path d="M21.7512 6.25272L19.644 4.43376C19.3922 4.21638 19.3354 3.83567 19.5447 3.54586C19.6578 3.38926 19.8409 3.29796 20.0335 3.2818L22.7917 3.05014L23.8705 0.483958C23.9995 0.177079 24.3445 0.00538751 24.6849 0.115473C24.8687 0.174946 25.0118 0.32088 25.0867 0.49897L26.1591 3.05014L28.9173 3.2818C29.1099 3.29796 29.293 3.38918 29.4062 3.54586C29.6155 3.83559 29.5587 4.21638 29.3069 4.43376L27.1997 6.25272L27.8313 8.94597C27.8746 9.13079 27.8472 9.32963 27.7378 9.48484C27.6049 9.67326 27.401 9.76891 27.1963 9.76891C27.0789 9.76891 26.9611 9.73741 26.8564 9.674L24.4754 8.23206L22.0943 9.674C21.8097 9.84651 21.4295 9.78269 21.219 9.49329C21.1053 9.33694 21.0752 9.13456 21.1194 8.94638L21.7512 6.25272Z" fill="#FF826E"/>
</svg>
