<svg width="42" height="42" viewBox="0 0 42 42" fill="none" xmlns="http://www.w3.org/2000/svg">
<g clip-path="url(#clip0_1077_10443)">
<path d="M21 6.5625C13.0391 6.5625 6.5625 13.0391 6.5625 21C6.5625 28.9609 13.0391 35.4375 21 35.4375C28.9609 35.4375 35.4375 28.9609 35.4375 21C35.4375 13.0391 28.9609 6.5625 21 6.5625ZM21 32.8125C14.4867 32.8125 9.1875 27.5133 9.1875 21C9.1875 14.4867 14.4867 9.1875 21 9.1875C27.5133 9.1875 32.8125 14.4867 32.8125 21C32.8125 27.5133 27.5133 32.8125 21 32.8125Z" fill="#556181"/>
<path d="M19.6875 17.0625H22.3125C22.6605 17.0629 22.9941 17.2013 23.2401 17.4474C23.4862 17.6934 23.6246 18.027 23.625 18.375H26.25C26.2488 17.3311 25.8336 16.3302 25.0955 15.592C24.3573 14.8539 23.3564 14.4387 22.3125 14.4375V13.125H19.6875V14.4375C18.6432 14.4375 17.6417 14.8523 16.9033 15.5908C16.1648 16.3292 15.75 17.3307 15.75 18.375C15.75 19.4193 16.1648 20.4208 16.9033 21.1592C17.6417 21.8977 18.6432 22.3125 19.6875 22.3125H22.3125C22.6606 22.3125 22.9944 22.4508 23.2406 22.6969C23.4867 22.9431 23.625 23.2769 23.625 23.625C23.625 23.9731 23.4867 24.3069 23.2406 24.5531C22.9944 24.7992 22.6606 24.9375 22.3125 24.9375H19.6875C19.3395 24.9371 19.0059 24.7987 18.7599 24.5526C18.5138 24.3066 18.3754 23.973 18.375 23.625H15.75C15.7512 24.6689 16.1664 25.6698 16.9045 26.408C17.6427 27.1461 18.6436 27.5613 19.6875 27.5625V28.875H22.3125V27.5625C23.3568 27.5625 24.3583 27.1477 25.0967 26.4092C25.8352 25.6708 26.25 24.6693 26.25 23.625C26.25 22.5807 25.8352 21.5792 25.0967 20.8408C24.3583 20.1023 23.3568 19.6875 22.3125 19.6875H19.6875C19.3394 19.6875 19.0056 19.5492 18.7594 19.3031C18.5133 19.0569 18.375 18.7231 18.375 18.375C18.375 18.0269 18.5133 17.6931 18.7594 17.4469C19.0056 17.2008 19.3394 17.0625 19.6875 17.0625Z" fill="#FF826E"/>
<path d="M40.6878 0H34.7815V2.625H37.5192L31.8848 8.25948L33.7408 10.1155L39.3753 4.48112V7.21875H42.0003V1.3125C42.0003 0.964403 41.862 0.630564 41.6159 0.384422C41.3697 0.138281 41.0359 0 40.6878 0Z" fill="#556181"/>
<path d="M2.625 4.48112L8.25948 10.1155L10.1155 8.25948L4.48112 2.625H7.21875V0H1.3125C0.964403 0 0.630564 0.138281 0.384422 0.384422C0.138281 0.630564 0 0.964403 0 1.3125L0 7.21875H2.625V4.48112Z" fill="#556181"/>
<path d="M39.3753 37.5192L34.0689 32.2129L32.2129 34.0689L37.5192 39.3753H34.7815V42.0003H40.6878C41.0359 42.0003 41.3697 41.862 41.6159 41.6159C41.862 41.3697 42.0003 41.0359 42.0003 40.6878V34.7815H39.3753V37.5192Z" fill="#556181"/>
<path d="M7.93135 32.2129L2.625 37.5192V34.7815H0V40.6878C0 41.0359 0.138281 41.3697 0.384422 41.6159C0.630564 41.862 0.964403 42.0003 1.3125 42.0003H7.21875V39.3753H4.48112L9.78739 34.0689L7.93135 32.2129Z" fill="#556181"/>
</g>
<defs>
<clipPath id="clip0_1077_10443">
<rect width="42" height="42" fill="white"/>
</clipPath>
</defs>
</svg>
