<svg width="63" height="47" viewBox="0 0 63 47" fill="none" xmlns="http://www.w3.org/2000/svg">
<path d="M56.5132 18.2973C55.3748 16.2318 53.0625 14.7532 50.3277 14.3417C47.7814 13.9576 45.2157 14.4469 42.8227 15.0317C42.3168 15.1553 41.8116 15.285 41.3062 15.4146C39.367 15.9122 37.3619 16.4267 35.3359 16.583C30.8773 16.9295 26.2989 15.4776 22.7749 12.6054L22.9207 12.4265C26.3993 15.2617 30.9171 16.693 35.318 16.3532C37.324 16.1983 39.3192 15.6862 41.2488 15.1911C41.755 15.0613 42.2612 14.9315 42.7678 14.8076C45.1839 14.217 47.7758 13.7243 50.3619 14.1134C53.1673 14.5357 55.5424 16.0581 56.7153 18.1861L56.5132 18.2973Z" fill="url(#paint0_linear_5455_29943)"/>
<path d="M23.0824 12.2527C22.9331 12.1326 22.7147 12.1562 22.5945 12.3054C22.4744 12.4546 22.498 12.6731 22.6472 12.7932C22.7964 12.9134 23.0149 12.8898 23.135 12.7406C23.2552 12.5914 23.2316 12.3729 23.0824 12.2527Z" fill="url(#paint1_linear_5455_29943)"/>
<path d="M28.0212 24.911C27.6566 24.911 27.2909 24.8817 26.9236 24.8177L26.9632 24.5906C29.3517 25.0065 31.7221 23.8965 34.0142 22.8234C34.5787 22.5591 35.1623 22.2858 35.7331 22.042C41.242 19.6904 47.5968 19.5964 53.1682 21.7841L53.0839 21.999C47.5686 19.8327 41.2776 19.9258 35.8237 22.2543C35.2566 22.4962 34.6747 22.7688 34.112 23.0322C32.1345 23.9582 30.0994 24.911 28.0212 24.911Z" fill="url(#paint2_linear_5455_29943)"/>
<path d="M27.0233 24.3585C26.8348 24.3246 26.6544 24.4501 26.6205 24.6387C26.5866 24.8272 26.7121 25.0076 26.9007 25.0415C27.0893 25.0753 27.2697 24.9498 27.3035 24.7613C27.3374 24.5727 27.2119 24.3923 27.0233 24.3585Z" fill="url(#paint3_linear_5455_29943)"/>
<path d="M44.4909 37.2666C41.3194 37.2666 38.2216 36.3328 35.4932 35.4182C35.0309 35.2635 34.5686 35.1056 34.106 34.9474C31.156 33.9389 28.1057 32.8963 24.9878 32.6671L25.0047 32.4369C28.1522 32.6683 31.2168 33.7159 34.1806 34.7291C34.6429 34.887 35.1047 35.0449 35.5663 35.1997C38.8577 36.3028 42.6897 37.4344 46.5164 36.8984C49.8815 36.4271 53.7691 34.2093 54.8689 30.3168L55.0908 30.3794C53.9629 34.3722 49.9876 36.6452 46.5484 37.1269C45.8614 37.2231 45.1741 37.2666 44.4909 37.2666Z" fill="url(#paint4_linear_5455_29943)"/>
<path d="M25.0459 32.2175C24.8551 32.1998 24.686 32.34 24.6683 32.5308C24.6505 32.7216 24.7908 32.8907 24.9816 32.9085C25.1724 32.9262 25.3414 32.7859 25.3592 32.5951C25.3769 32.4043 25.2367 32.2353 25.0459 32.2175Z" fill="url(#paint5_linear_5455_29943)"/>
<path d="M51.5047 39.201C48.1049 39.201 44.7637 38.1011 42.1936 36.9467C40.3657 36.1255 38.5668 35.1539 36.827 34.2145C34.1964 32.7937 31.4763 31.3245 28.618 30.358C23.1023 28.4928 17.0299 28.5139 11.5189 30.4182L11.4436 30.2001C17.0024 28.2796 23.1279 28.2577 28.6919 30.1394C31.5687 31.1123 34.2976 32.5862 36.9366 34.0114C38.6727 34.9489 40.4678 35.9183 42.2882 36.7362C46.1725 38.4809 51.8329 40.1021 56.7407 37.916L56.8347 38.1269C55.1116 38.8944 53.3 39.201 51.5047 39.201Z" fill="url(#paint6_linear_5455_29943)"/>
<path d="M11.388 29.9798C11.2063 30.0408 11.1085 30.2375 11.1695 30.4191C11.2305 30.6008 11.4272 30.6986 11.6089 30.6376C11.7905 30.5766 11.8883 30.3799 11.8273 30.1983C11.7663 30.0166 11.5696 29.9188 11.388 29.9798Z" fill="url(#paint7_linear_5455_29943)"/>
<path d="M43.7264 42.2775C41.9106 42.2775 40.0986 42.0846 38.3378 41.6951C36.1727 41.2161 34.0505 40.4431 31.9981 39.6957C30.7472 39.2402 29.4537 38.7691 28.1649 38.3699C24.1471 37.1253 20.8397 36.9002 18.0534 37.6811L17.9912 37.459C20.8215 36.6655 24.1716 36.8914 28.2332 38.1495C29.5274 38.5503 30.8236 39.0223 32.0771 39.479C34.1224 40.2238 36.2374 40.9941 38.3876 41.4697C43.1071 42.5138 48.199 42.1328 52.7252 40.3968L52.8079 40.6122C49.9285 41.7165 46.8222 42.2775 43.7264 42.2775Z" fill="url(#paint8_linear_5455_29943)"/>
<path d="M17.9466 37.2361C17.7621 37.2877 17.6544 37.4792 17.706 37.6637C17.7577 37.8483 17.9493 37.9559 18.1337 37.9043C18.3182 37.8526 18.4259 37.6611 18.3743 37.4766C18.3226 37.2921 18.1311 37.1844 17.9466 37.2361Z" fill="url(#paint9_linear_5455_29943)"/>
<path d="M54.025 12.397C51.7703 10.5278 48.6218 9.6979 44.3971 9.85549C43.1669 9.90178 41.9158 10.019 40.7059 10.1321C38.5655 10.3325 36.352 10.5398 34.1715 10.3629C30.3195 10.0506 27.1598 8.41906 25.5024 5.88682L25.6955 5.76044C27.3136 8.23276 30.4098 9.82639 34.1902 10.1329C36.3505 10.308 38.5537 10.1019 40.6844 9.90241C41.8975 9.78885 43.1518 9.67146 44.3885 9.62496C48.6714 9.46373 51.8719 10.3122 54.1724 12.2194L54.025 12.397Z" fill="url(#paint10_linear_5455_29943)"/>
<path d="M25.9045 5.64467C25.7996 5.48432 25.5846 5.43925 25.4242 5.54413C25.2638 5.64898 25.2188 5.86406 25.3237 6.02441C25.4285 6.18476 25.6436 6.2298 25.8039 6.12492C25.9643 6.02007 26.0093 5.80502 25.9045 5.64467Z" fill="url(#paint11_linear_5455_29943)"/>
<path d="M50.9357 8.08848C49.8497 7.17681 48.5525 6.54395 47.184 6.25802C46.1851 6.04938 45.1419 6.02406 44.133 5.99948C43.7431 5.99002 43.3399 5.98022 42.944 5.96005C41.7006 5.89663 40.1054 5.71201 38.7976 4.84018C37.5764 4.02632 36.8191 2.61209 36.9134 1.32112L37.1435 1.338C37.055 2.54853 37.7712 3.87892 38.9256 4.64821C40.1866 5.4888 41.7418 5.66768 42.9557 5.72952C43.3486 5.74959 43.7502 5.75939 44.1386 5.76885C45.1577 5.79364 46.2117 5.81931 47.231 6.03222C48.6367 6.32578 49.969 6.97566 51.0839 7.91178L50.9357 8.08848Z" fill="url(#paint12_linear_5455_29943)"/>
<path d="M37.3744 1.38815C37.3971 1.19793 37.2613 1.02525 37.071 1.00249C36.8808 0.979727 36.7081 1.1156 36.6853 1.30586C36.6626 1.49604 36.7984 1.66876 36.9887 1.69152C37.1789 1.71421 37.3516 1.57844 37.3744 1.38815Z" fill="url(#paint13_linear_5455_29943)"/>
<path d="M27.695 20.7519C23.6225 20.7519 19.5859 19.3319 16.3545 16.7137L16.4998 16.5344C20.2617 19.5824 25.1301 20.9861 29.8553 20.3847C32.4004 20.061 34.8762 19.1695 37.2703 18.3073C38.6941 17.7947 40.1663 17.2646 41.6437 16.8561C44.4817 16.0718 49.7979 15.2184 53.5191 18.3124L53.3715 18.49C49.7312 15.4628 44.4996 16.3059 41.7052 17.0787C40.2362 17.4846 38.7682 18.0132 37.3485 18.5244C34.9426 19.3907 32.4547 20.2865 29.8844 20.6136C29.1567 20.7062 28.4249 20.7517 27.695 20.7519Z" fill="url(#paint14_linear_5455_29943)"/>
<path d="M16.6607 16.3594C16.5109 16.2399 16.2926 16.2645 16.1731 16.4143C16.0537 16.5641 16.0782 16.7824 16.228 16.9019C16.3778 17.0214 16.5962 16.9968 16.7156 16.847C16.8351 16.6972 16.8105 16.4789 16.6607 16.3594Z" fill="url(#paint15_linear_5455_29943)"/>
<path d="M9.10667 35.1801L8.96631 34.9972C12.3585 32.3981 17.0631 31.3566 22.9471 31.9007C25.1582 32.1053 27.3839 32.4968 29.5364 32.8755C32.1892 33.3424 34.9322 33.8252 37.6594 33.9583C43.4591 34.239 48.3186 32.668 51.3407 29.5267L51.507 29.6867C48.4381 32.8769 43.5156 34.4765 37.6482 34.1886C34.9065 34.0547 32.1562 33.5708 29.4964 33.1029C27.3485 32.7248 25.1275 32.3341 22.9259 32.1305C17.1003 31.5906 12.4511 32.6178 9.10667 35.1801Z" fill="url(#paint16_linear_5455_29943)"/>
<path d="M8.84685 34.8067C8.69354 34.9217 8.66244 35.1392 8.77738 35.2925C8.89231 35.4458 9.10981 35.4769 9.26312 35.362C9.4164 35.247 9.44753 35.0295 9.3326 34.8762C9.21767 34.7229 9.00017 34.6918 8.84685 34.8067Z" fill="url(#paint17_linear_5455_29943)"/>
<path d="M43.7586 28.0904C43.7038 28.0904 43.6489 28.0899 43.5938 28.0893C41.0447 28.0577 38.5795 27.3823 35.8518 26.5694L35.9176 26.3482C38.6285 27.1561 41.0774 27.8275 43.5968 27.8586C46.6132 27.8928 49.3163 26.8873 51.0218 25.0908L51.1892 25.2499C49.4708 27.0597 46.7698 28.0904 43.7586 28.0904Z" fill="url(#paint18_linear_5455_29943)"/>
<path d="M35.9985 26.1286C35.8146 26.0749 35.6219 26.1804 35.5682 26.3644C35.5145 26.5483 35.62 26.741 35.804 26.7947C35.9879 26.8484 36.1805 26.7428 36.2343 26.5589C36.288 26.375 36.1824 26.1823 35.9985 26.1286Z" fill="url(#paint19_linear_5455_29943)"/>
<path d="M38.218 25.417L38.1453 25.198C41.4167 24.1105 44.9324 23.8595 48.3119 24.4717L48.2706 24.6988C44.9291 24.0932 41.4527 24.3419 38.218 25.417Z" fill="url(#paint20_linear_5455_29943)"/>
<path d="M38.0958 24.9793C37.913 25.0367 37.8114 25.2316 37.8688 25.4143C37.9263 25.5971 38.1211 25.6987 38.3039 25.6413C38.4867 25.5838 38.5883 25.389 38.5308 25.2062C38.4734 25.0234 38.2785 24.9218 38.0958 24.9793Z" fill="url(#paint21_linear_5455_29943)"/>
<path d="M41.5315 31.633C38.6557 31.633 35.7532 30.6325 33.3273 29.6274C32.854 29.4314 32.3796 29.2298 31.9035 29.0277C28.5843 27.6182 25.1498 26.161 21.6113 26.3509L21.5989 26.1206C25.1912 25.9246 28.6503 27.3956 31.9936 28.8154C32.469 29.0173 32.9429 29.2185 33.4156 29.4143C36.9795 30.8909 41.5806 32.3598 45.5593 30.5964L45.6528 30.8073C44.3241 31.396 42.9309 31.633 41.5315 31.633Z" fill="url(#paint22_linear_5455_29943)"/>
<path d="M21.6059 25.8947C21.4145 25.9039 21.2668 26.0666 21.276 26.2579C21.2853 26.4494 21.448 26.597 21.6394 26.5877C21.8307 26.5785 21.9784 26.4157 21.9692 26.2244C21.9599 26.033 21.7972 25.8853 21.6059 25.8947Z" fill="url(#paint23_linear_5455_29943)"/>
<path d="M15.0618 11.604C13.0295 11.604 11.1619 11.317 9.43039 10.7431C5.19659 9.33982 1.96423 6.06242 0.994873 2.18984L1.21857 2.13374C2.15473 5.8729 5.40646 9.16634 9.50294 10.5241C12.9833 11.6776 17.0296 11.656 21.8723 10.4581C24.194 9.88391 26.5035 9.09928 28.737 8.34049C30.4263 7.76654 32.173 7.17311 33.9158 6.67374C38.8934 5.24761 42.8625 4.93545 46.407 5.69189C49.4004 6.33052 52.1915 7.78065 54.4785 9.88552L54.3224 10.0551C52.0657 7.97836 49.3118 6.54746 46.3588 5.91744C42.8525 5.16955 38.919 5.48023 33.9794 6.89544C32.242 7.39348 30.4979 7.98589 28.8113 8.55894C26.5732 9.31933 24.2589 10.1055 21.9277 10.682C19.443 11.2967 17.1642 11.604 15.0618 11.604Z" fill="url(#paint24_linear_5455_29943)"/>
<path d="M1.54062 2.07584C1.4826 1.84349 1.24717 1.70212 1.01478 1.76008C0.782432 1.8181 0.641027 2.0536 0.699053 2.28592C0.757044 2.51834 0.992474 2.65971 1.22486 2.60168C1.45721 2.54366 1.59861 2.30823 1.54062 2.07584Z" fill="url(#paint25_linear_5455_29943)"/>
<path d="M10.5566 24.8889C10.1114 24.8889 9.67258 24.8635 9.24023 24.8123L9.26727 24.5834C12.2602 24.9355 15.5804 24.0393 19.1367 21.9161C20.8394 20.8998 22.4712 19.6976 24.0494 18.535C25.3762 17.5577 26.7482 16.547 28.159 15.6485C33.6573 12.1471 39.9707 10.1877 46.417 9.98188C49.8558 9.87161 52.7373 10.2953 55.2285 11.2758C58.2508 12.4655 60.6723 14.5225 62.0472 17.0679L61.8442 17.1774C60.4952 14.68 58.1157 12.6603 55.144 11.4905C52.6826 10.5217 49.8307 10.1046 46.4244 10.2124C40.0195 10.417 33.7463 12.364 28.2829 15.8432C26.8786 16.7374 25.51 17.7456 24.1862 18.7207C22.6036 19.8866 20.9672 21.0922 19.255 22.1144C16.1654 23.9587 13.246 24.8889 10.5566 24.8889Z" fill="url(#paint26_linear_5455_29943)"/>
<path d="M9.32985 24.2652C9.09222 24.2355 8.87538 24.4041 8.84568 24.6417C8.81595 24.8793 8.98453 25.0961 9.22217 25.1259C9.45981 25.1556 9.67664 24.987 9.70637 24.7494C9.73607 24.5117 9.56749 24.2949 9.32985 24.2652Z" fill="url(#paint27_linear_5455_29943)"/>
<path d="M60.6013 19.6699C53.5769 11.8086 42.1231 8.25479 32.0982 10.8267C30.2935 11.2897 28.5038 11.9412 26.7732 12.5713C24.646 13.3457 22.4463 14.1464 20.1955 14.6063C15.5178 15.5623 11.3397 14.667 8.73242 12.1505L8.89263 11.9845C12.5168 15.4825 17.972 14.8254 20.1493 14.3803C22.3834 13.9239 24.5749 13.1261 26.6943 12.3544C28.4302 11.7225 30.2253 11.069 32.041 10.6032C37.0355 9.32181 42.3987 9.48906 47.5503 11.0872C52.7017 12.6854 57.2741 15.6001 60.7735 19.5162L60.6013 19.6699Z" fill="url(#paint28_linear_5455_29943)"/>
<path d="M9.13618 11.7649C8.96421 11.5982 8.68959 11.6025 8.52294 11.7744C8.35621 11.9464 8.36049 12.221 8.53246 12.3877C8.70444 12.5543 8.97906 12.55 9.14574 12.3781C9.31243 12.2062 9.30813 11.9316 9.13618 11.7649Z" fill="url(#paint29_linear_5455_29943)"/>
<path d="M1.96192 46.6559L1.79541 46.4964C5.57445 42.5557 11.3631 40.1152 18.095 39.6245C23.4054 39.2384 28.7845 39.9895 33.9865 40.717C34.7685 40.8263 35.55 40.9356 36.331 41.0412C41.9094 41.7946 48.3735 42.4845 54.4954 41.1194C56.9144 40.58 61.1375 39.1212 62.2417 35.4103L62.4627 35.4761C61.325 39.2999 57.0142 40.7943 54.5457 41.3447C48.3867 42.7181 41.8983 42.026 36.3002 41.2697C35.5188 41.1642 34.7369 41.0549 33.9546 40.9455C28.7646 40.22 23.3979 39.4693 18.1117 39.8548C11.4369 40.3412 5.7014 42.7567 1.96192 46.6559Z" fill="url(#paint30_linear_5455_29943)"/>
<path d="M1.58947 46.2633C1.42215 46.4346 1.42537 46.7092 1.59672 46.8766C1.76807 47.0439 2.04268 47.0407 2.21004 46.8693C2.37736 46.698 2.37413 46.4233 2.20275 46.256C2.03144 46.0887 1.75679 46.0919 1.58947 46.2633Z" fill="url(#paint31_linear_5455_29943)"/>
<path d="M9.15884 39.3125L8.9502 39.2143C10.7717 35.3477 13.8169 32.1706 17.5247 30.2681C21.3683 28.2961 25.7891 27.7461 29.9726 28.7183C32.447 29.2935 34.799 30.3916 37.0735 31.4535C38.9041 32.308 40.7972 33.1916 42.7416 33.7968C48.3124 35.53 54.4903 34.9737 59.6913 32.271L59.7977 32.4756C54.5432 35.2067 48.3017 35.7679 42.6731 34.0171C40.7137 33.4075 38.8135 32.5203 36.9759 31.6623C34.7122 30.6057 32.3714 29.5127 29.9203 28.9432C25.7901 27.9827 21.4251 28.5261 17.6299 30.4736C13.9673 32.3528 10.9589 35.4919 9.15884 39.3125Z" fill="url(#paint32_linear_5455_29943)"/>
<path d="M8.68775 39.0565C8.58116 39.271 8.6686 39.5314 8.88305 39.638C9.09751 39.7446 9.35787 39.6572 9.46447 39.4427C9.57106 39.2282 9.48362 38.9679 9.26913 38.8613C9.05468 38.7547 8.79435 38.8421 8.68775 39.0565Z" fill="url(#paint33_linear_5455_29943)"/>
<path d="M17.5361 36.2811L17.3337 36.1703C20.7712 29.888 27.1887 25.4559 34.0813 24.6037C38.1125 24.1053 42.212 24.767 46.1769 25.4068C50.1272 26.0445 54.212 26.7034 58.2113 26.2082L58.2397 26.4371C54.2076 26.9364 50.1064 26.2747 46.1402 25.6346C42.1911 24.9972 38.1072 24.3385 34.1097 24.8325C27.2893 25.6759 20.9386 30.0627 17.5361 36.2811Z" fill="url(#paint34_linear_5455_29943)"/>
<path d="M17.0754 35.9982C16.9579 36.2069 17.0318 36.4715 17.2405 36.5889C17.4492 36.7065 17.7137 36.6325 17.8312 36.4239C17.9487 36.2152 17.8748 35.9507 17.6661 35.8332C17.4574 35.7157 17.1929 35.7896 17.0754 35.9982Z" fill="url(#paint35_linear_5455_29943)"/>
<path d="M21.9522 22.6012C18.8754 22.6012 15.5967 21.9643 12.8533 19.9772L12.9887 19.7902C17.3586 22.9556 23.1304 22.6379 27.2028 21.8138C29.3495 21.3794 31.4957 20.7488 33.5713 20.1389C36.3132 19.3333 39.1485 18.5003 42.0226 18.1081C48.0119 17.2903 53.1954 18.8 56.2436 22.2498L56.0708 22.4025C53.0745 19.0118 47.9666 17.53 42.0537 18.3366C39.1968 18.7265 36.3701 19.557 33.6363 20.3602C31.5561 20.9714 29.4051 21.6036 27.2485 22.04C25.6763 22.3582 23.8526 22.6012 21.9522 22.6012Z" fill="url(#paint36_linear_5455_29943)"/>
<path d="M13.1964 19.5362C13.0017 19.3967 12.7307 19.4416 12.5913 19.6363C12.4519 19.8311 12.4968 20.1021 12.6915 20.2415C12.8863 20.3809 13.1572 20.336 13.2966 20.1413C13.436 19.9465 13.3911 19.6756 13.1964 19.5362Z" fill="url(#paint37_linear_5455_29943)"/>
<path d="M51.2845 42.8885C46.0566 42.8885 39.707 41.6646 38.6379 41.4508L38.6832 41.2246C40.3609 41.5601 55.1517 44.4063 57.8329 41.0568C58.3309 40.4345 58.3584 39.6124 57.9144 38.6132C57.3911 37.436 58.1701 36.4433 58.4212 36.1673C58.7971 35.7537 58.9753 35.1226 58.8449 34.6666C58.7044 34.1748 58.1657 33.5962 58.1603 33.5904L58.0819 33.5068L58.1652 33.4277C58.1711 33.4221 58.7545 32.8581 58.6175 32.0712C58.5343 31.5927 58.3077 31.3552 58.0679 31.1038C57.9011 30.9289 57.7286 30.7482 57.6145 30.4873C57.4019 30.0013 58.1612 29.6515 59.1227 29.2083C59.6187 28.9796 60.1317 28.7433 60.5395 28.4729C60.8142 28.2909 60.9559 28.0854 60.9728 27.8448C61.0248 27.1033 59.9195 26.1235 58.8506 25.1759C58.555 24.9138 58.2493 24.643 57.9776 24.3842C56.3602 22.8438 56.3866 21.7506 56.444 19.3555C56.5392 15.396 55.2842 11.9659 52.8146 9.43625C49.7891 6.33727 45.0003 4.63049 39.3301 4.63049C36.6957 4.63049 34.1856 5.18372 31.8675 6.27504L31.9149 6.40156L31.6988 6.48246L31.5771 6.1578L31.6725 6.11221C34.0483 4.97592 36.6247 4.39983 39.33 4.39983C45.0629 4.39983 49.9104 6.13125 52.9796 9.27509C55.4936 11.8504 56.7713 15.338 56.6747 19.3609C56.6171 21.7558 56.5933 22.7471 58.1366 24.217C58.4054 24.4732 58.7094 24.7426 59.0036 25.0033C60.1143 25.9878 61.2628 27.0059 61.2028 27.861C61.181 28.1735 61.0006 28.444 60.6669 28.6653C60.2443 28.9453 59.7231 29.1855 59.2192 29.4177C58.4742 29.7611 57.7038 30.1162 57.8257 30.3949C57.9235 30.6184 58.0746 30.7768 58.2347 30.9444C58.4761 31.1974 58.7494 31.484 58.8447 32.0314C58.9722 32.7646 58.5756 33.3129 58.4008 33.5133C58.5619 33.6987 58.9424 34.1684 59.0667 34.603C59.2175 35.1307 59.0178 35.8539 58.5919 36.3223C58.3644 36.5724 57.6587 37.47 58.1252 38.5194C58.607 39.6038 58.5692 40.5059 58.013 41.2009C56.9947 42.4732 54.3298 42.8885 51.2845 42.8885Z" fill="url(#paint38_linear_5455_29943)"/>
<path d="M56.5132 17.9973C55.3748 15.9318 53.0625 14.4532 50.3277 14.0417C47.7814 13.6576 45.2157 14.1469 42.8227 14.7317C42.3168 14.8553 41.8116 14.985 41.3062 15.1146C39.367 15.6122 37.3619 16.1267 35.3359 16.283C30.8773 16.6295 26.2989 15.1776 22.7749 12.3054L22.9207 12.1265C26.3993 14.9617 30.9171 16.393 35.318 16.0532C37.324 15.8982 39.3192 15.3862 41.2488 14.8911C41.755 14.7613 42.2612 14.6315 42.7678 14.5076C45.1839 13.917 47.7758 13.4242 50.3619 13.8134C53.1673 14.2357 55.5424 15.7581 56.7153 17.8861L56.5132 17.9973Z" fill="url(#paint39_linear_5455_29943)"/>
<path d="M23.0824 11.9527C22.9331 11.8325 22.7147 11.8561 22.5945 12.0054C22.4744 12.1546 22.498 12.3731 22.6472 12.4932C22.7964 12.6134 23.0149 12.5898 23.135 12.4406C23.2552 12.2914 23.2316 12.0729 23.0824 11.9527Z" fill="url(#paint40_linear_5455_29943)"/>
<path d="M28.0212 24.611C27.6566 24.611 27.2909 24.5817 26.9236 24.5177L26.9632 24.2906C29.3517 24.7065 31.7221 23.5965 34.0142 22.5234C34.5787 22.2591 35.1623 21.9858 35.7331 21.742C41.242 19.3904 47.5968 19.2964 53.1682 21.4841L53.0839 21.699C47.5686 19.5327 41.2776 19.6258 35.8237 21.9542C35.2566 22.1962 34.6747 22.4688 34.112 22.7322C32.1345 23.6582 30.0994 24.611 28.0212 24.611Z" fill="url(#paint41_linear_5455_29943)"/>
<path d="M27.0233 24.0585C26.8348 24.0246 26.6544 24.1501 26.6205 24.3387C26.5866 24.5272 26.7121 24.7076 26.9007 24.7415C27.0893 24.7753 27.2697 24.6498 27.3035 24.4613C27.3374 24.2727 27.2119 24.0923 27.0233 24.0585Z" fill="url(#paint42_linear_5455_29943)"/>
<path d="M44.4909 36.9666C41.3194 36.9666 38.2216 36.0328 35.4932 35.1182C35.0309 34.9635 34.5686 34.8056 34.106 34.6474C31.156 33.6389 28.1057 32.5963 24.9878 32.3671L25.0047 32.1369C28.1522 32.3683 31.2168 33.4159 34.1806 34.4291C34.6429 34.587 35.1047 34.7449 35.5663 34.8997C38.8577 36.0028 42.6897 37.1344 46.5164 36.5984C49.8815 36.1271 53.7691 33.9093 54.8689 30.0168L55.0908 30.0794C53.9629 34.0722 49.9876 36.3452 46.5484 36.8269C45.8614 36.9231 45.1741 36.9666 44.4909 36.9666Z" fill="url(#paint43_linear_5455_29943)"/>
<path d="M25.0459 31.9175C24.8551 31.8998 24.686 32.04 24.6683 32.2308C24.6505 32.4216 24.7908 32.5907 24.9816 32.6085C25.1724 32.6262 25.3414 32.4859 25.3592 32.2951C25.3769 32.1043 25.2367 31.9353 25.0459 31.9175Z" fill="url(#paint44_linear_5455_29943)"/>
<path d="M51.5047 38.901C48.1049 38.901 44.7637 37.8011 42.1936 36.6467C40.3657 35.8255 38.5668 34.8539 36.827 33.9145C34.1964 32.4937 31.4763 31.0245 28.618 30.058C23.1023 28.1928 17.0299 28.2139 11.5189 30.1182L11.4436 29.9001C17.0024 27.9796 23.1279 27.9577 28.6919 29.8394C31.5687 30.8123 34.2976 32.2862 36.9366 33.7114C38.6727 34.6489 40.4678 35.6183 42.2882 36.4362C46.1725 38.1809 51.8329 39.8021 56.7407 37.616L56.8347 37.8269C55.1116 38.5944 53.3 38.901 51.5047 38.901Z" fill="url(#paint45_linear_5455_29943)"/>
<path d="M11.388 29.6798C11.2063 29.7408 11.1085 29.9375 11.1695 30.1191C11.2305 30.3008 11.4272 30.3986 11.6089 30.3376C11.7905 30.2766 11.8883 30.0799 11.8273 29.8983C11.7663 29.7166 11.5696 29.6188 11.388 29.6798Z" fill="url(#paint46_linear_5455_29943)"/>
<path d="M43.7264 41.9775C41.9106 41.9775 40.0986 41.7846 38.3378 41.3951C36.1727 40.9161 34.0505 40.1431 31.9981 39.3957C30.7472 38.9402 29.4537 38.4691 28.1649 38.0699C24.1471 36.8253 20.8397 36.6002 18.0534 37.3811L17.9912 37.1589C20.8215 36.3655 24.1716 36.5914 28.2332 37.8495C29.5274 38.2503 30.8236 38.7223 32.0771 39.179C34.1224 39.9238 36.2374 40.6941 38.3876 41.1697C43.1071 42.2138 48.199 41.8328 52.7252 40.0968L52.8079 40.3122C49.9285 41.4165 46.8222 41.9775 43.7264 41.9775Z" fill="url(#paint47_linear_5455_29943)"/>
<path d="M17.9466 36.9361C17.7621 36.9877 17.6544 37.1792 17.706 37.3637C17.7577 37.5483 17.9493 37.6559 18.1337 37.6042C18.3182 37.5526 18.4259 37.3611 18.3743 37.1766C18.3226 36.9921 18.1311 36.8844 17.9466 36.9361Z" fill="url(#paint48_linear_5455_29943)"/>
<path d="M54.025 12.097C51.7703 10.2278 48.6218 9.3979 44.3971 9.55549C43.1669 9.60178 41.9158 9.71895 40.7059 9.83213C38.5655 10.0325 36.352 10.2398 34.1715 10.0629C30.3195 9.75057 27.1598 8.11905 25.5024 5.58682L25.6955 5.46043C27.3136 7.93275 30.4098 9.52638 34.1902 9.8329C36.3505 10.008 38.5537 9.80191 40.6844 9.60241C41.8975 9.48884 43.1518 9.37146 44.3885 9.32496C48.6714 9.16373 51.8719 10.0122 54.1724 11.9194L54.025 12.097Z" fill="url(#paint49_linear_5455_29943)"/>
<path d="M25.9045 5.34467C25.7996 5.18432 25.5846 5.13925 25.4242 5.24413C25.2638 5.34898 25.2188 5.56406 25.3237 5.72441C25.4285 5.88476 25.6436 5.9298 25.8039 5.82491C25.9643 5.72007 26.0093 5.50502 25.9045 5.34467Z" fill="url(#paint50_linear_5455_29943)"/>
<path d="M50.9357 7.78848C49.8497 6.8768 48.5525 6.24395 47.184 5.95802C46.1851 5.74938 45.1419 5.72406 44.133 5.69948C43.7431 5.69002 43.3399 5.68022 42.944 5.66005C41.7006 5.59663 40.1054 5.41201 38.7976 4.54018C37.5764 3.72631 36.8191 2.31208 36.9134 1.02112L37.1435 1.038C37.055 2.24852 37.7712 3.57892 38.9256 4.34821C40.1866 5.1888 41.7418 5.36767 42.9557 5.42952C43.3486 5.44958 43.7502 5.45939 44.1386 5.46884C45.1577 5.49364 46.2117 5.51931 47.231 5.73222C48.6367 6.02578 49.969 6.67566 51.0839 7.61178L50.9357 7.78848Z" fill="url(#paint51_linear_5455_29943)"/>
<path d="M37.3744 1.08815C37.3971 0.897926 37.2613 0.725249 37.071 0.702486C36.8808 0.679724 36.7081 0.815597 36.6853 1.00585C36.6626 1.19604 36.7984 1.36875 36.9887 1.39151C37.1789 1.41421 37.3516 1.27844 37.3744 1.08815Z" fill="url(#paint52_linear_5455_29943)"/>
<path d="M27.695 20.4519C23.6225 20.4519 19.5859 19.0319 16.3545 16.4137L16.4998 16.2344C20.2617 19.2824 25.1301 20.686 29.8553 20.0847C32.4004 19.761 34.8762 18.8695 37.2703 18.0073C38.6941 17.4947 40.1663 16.9646 41.6437 16.5561C44.4817 15.7718 49.7979 14.9184 53.5191 18.0124L53.3715 18.1899C49.7312 15.1628 44.4996 16.0059 41.7052 16.7787C40.2362 17.1846 38.7682 17.7132 37.3485 18.2244C34.9426 19.0907 32.4547 19.9865 29.8844 20.3136C29.1567 20.4062 28.4249 20.4517 27.695 20.4519Z" fill="url(#paint53_linear_5455_29943)"/>
<path d="M16.6607 16.0594C16.5109 15.9399 16.2926 15.9645 16.1731 16.1143C16.0537 16.2641 16.0782 16.4824 16.228 16.6019C16.3778 16.7214 16.5962 16.6968 16.7156 16.547C16.8351 16.3972 16.8105 16.1789 16.6607 16.0594Z" fill="url(#paint54_linear_5455_29943)"/>
<path d="M9.10667 34.8801L8.96631 34.6972C12.3585 32.0981 17.0631 31.0566 22.9471 31.6007C25.1582 31.8053 27.3839 32.1968 29.5364 32.5755C32.1892 33.0424 34.9322 33.5252 37.6594 33.6583C43.4591 33.939 48.3186 32.368 51.3407 29.2267L51.507 29.3866C48.4381 32.5769 43.5156 34.1765 37.6482 33.8885C34.9065 33.7547 32.1562 33.2708 29.4964 32.8029C27.3485 32.4248 25.1275 32.0341 22.9259 31.8305C17.1003 31.2906 12.4511 32.3178 9.10667 34.8801Z" fill="url(#paint55_linear_5455_29943)"/>
<path d="M8.84685 34.5067C8.69354 34.6217 8.66244 34.8392 8.77738 34.9925C8.89231 35.1458 9.10981 35.1769 9.26312 35.062C9.4164 34.947 9.44753 34.7295 9.3326 34.5762C9.21767 34.4229 9.00017 34.3918 8.84685 34.5067Z" fill="url(#paint56_linear_5455_29943)"/>
<path d="M43.7586 27.7904C43.7038 27.7904 43.6489 27.7899 43.5938 27.7893C41.0447 27.7577 38.5795 27.0823 35.8518 26.2694L35.9176 26.0482C38.6285 26.8561 41.0774 27.5275 43.5968 27.5586C46.6132 27.5928 49.3163 26.5873 51.0218 24.7908L51.1892 24.9499C49.4708 26.7597 46.7698 27.7904 43.7586 27.7904Z" fill="url(#paint57_linear_5455_29943)"/>
<path d="M35.9985 25.8286C35.8146 25.7749 35.6219 25.8804 35.5682 26.0644C35.5145 26.2483 35.62 26.441 35.804 26.4947C35.9879 26.5484 36.1805 26.4428 36.2343 26.2589C36.288 26.075 36.1824 25.8823 35.9985 25.8286Z" fill="url(#paint58_linear_5455_29943)"/>
<path d="M38.218 25.117L38.1453 24.898C41.4167 23.8105 44.9324 23.5595 48.3119 24.1717L48.2706 24.3988C44.9291 23.7932 41.4527 24.0419 38.218 25.117Z" fill="url(#paint59_linear_5455_29943)"/>
<path d="M38.0958 24.6793C37.913 24.7367 37.8114 24.9316 37.8688 25.1143C37.9263 25.2971 38.1211 25.3987 38.3039 25.3413C38.4867 25.2838 38.5883 25.089 38.5308 24.9062C38.4734 24.7234 38.2785 24.6218 38.0958 24.6793Z" fill="url(#paint60_linear_5455_29943)"/>
<path d="M41.5315 31.333C38.6557 31.333 35.7532 30.3325 33.3273 29.3274C32.854 29.1314 32.3796 28.9297 31.9035 28.7277C28.5843 27.3182 25.1498 25.861 21.6113 26.0509L21.5989 25.8206C25.1912 25.6246 28.6503 27.0956 31.9936 28.5154C32.469 28.7173 32.9429 28.9185 33.4156 29.1143C36.9795 30.5909 41.5806 32.0598 45.5593 30.2964L45.6528 30.5073C44.3241 31.096 42.9309 31.333 41.5315 31.333Z" fill="url(#paint61_linear_5455_29943)"/>
<path d="M21.6059 25.5947C21.4145 25.6039 21.2668 25.7666 21.276 25.9579C21.2853 26.1494 21.448 26.297 21.6394 26.2877C21.8307 26.2785 21.9784 26.1157 21.9692 25.9244C21.9599 25.733 21.7972 25.5853 21.6059 25.5947Z" fill="url(#paint62_linear_5455_29943)"/>
<path d="M15.0618 11.304C13.0295 11.304 11.1619 11.017 9.43039 10.4431C5.19659 9.03982 1.96423 5.76242 0.994873 1.88984L1.21857 1.83374C2.15473 5.5729 5.40646 8.86633 9.50294 10.2241C12.9833 11.3776 17.0296 11.356 21.8723 10.1581C24.194 9.5839 26.5035 8.79927 28.737 8.04049C30.4263 7.46653 32.173 6.87311 33.9158 6.37374C38.8934 4.9476 42.8625 4.63545 46.407 5.39188C49.4004 6.03052 52.1915 7.48065 54.4785 9.58551L54.3224 9.75514C52.0657 7.67836 49.3118 6.24746 46.3588 5.61744C42.8525 4.86955 38.919 5.18023 33.9794 6.59544C32.242 7.09348 30.4979 7.68589 28.8113 8.25894C26.5732 9.01933 24.2589 9.8055 21.9277 10.382C19.443 10.9967 17.1642 11.304 15.0618 11.304Z" fill="url(#paint63_linear_5455_29943)"/>
<path d="M1.54062 1.77584C1.4826 1.54349 1.24717 1.40212 1.01478 1.46008C0.782432 1.5181 0.641027 1.7536 0.699053 1.98592C0.757044 2.21833 0.992474 2.35971 1.22486 2.30168C1.45721 2.24365 1.59861 2.00822 1.54062 1.77584Z" fill="url(#paint64_linear_5455_29943)"/>
<path d="M10.5566 24.5889C10.1114 24.5889 9.67258 24.5635 9.24023 24.5123L9.26727 24.2834C12.2602 24.6355 15.5804 23.7393 19.1367 21.6161C20.8394 20.5998 22.4712 19.3976 24.0494 18.235C25.3762 17.2577 26.7482 16.247 28.159 15.3485C33.6573 11.8471 39.9707 9.88769 46.417 9.68188C49.8558 9.57161 52.7373 9.99526 55.2285 10.9758C58.2508 12.1655 60.6723 14.2225 62.0472 16.7679L61.8442 16.8774C60.4952 14.38 58.1157 12.3603 55.144 11.1905C52.6826 10.2217 49.8307 9.80459 46.4244 9.91241C40.0195 10.117 33.7463 12.064 28.2829 15.5432C26.8786 16.4374 25.51 17.4456 24.1862 18.4207C22.6036 19.5866 20.9672 20.7922 19.255 21.8144C16.1654 23.6586 13.246 24.5889 10.5566 24.5889Z" fill="url(#paint65_linear_5455_29943)"/>
<path d="M9.32985 23.9652C9.09222 23.9355 8.87538 24.1041 8.84568 24.3417C8.81595 24.5793 8.98453 24.7961 9.22217 24.8259C9.45981 24.8556 9.67664 24.687 9.70637 24.4494C9.73607 24.2117 9.56749 23.9949 9.32985 23.9652Z" fill="url(#paint66_linear_5455_29943)"/>
<path d="M60.6013 19.3699C53.5769 11.5086 42.1231 7.95479 32.0982 10.5267C30.2935 10.9897 28.5038 11.6412 26.7732 12.2713C24.646 13.0457 22.4463 13.8464 20.1955 14.3063C15.5178 15.2623 11.3397 14.367 8.73242 11.8505L8.89263 11.6845C12.5168 15.1825 17.972 14.5254 20.1493 14.0803C22.3834 13.6239 24.5749 12.8261 26.6943 12.0544C28.4302 11.4225 30.2253 10.769 32.041 10.3032C37.0355 9.02181 42.3987 9.18906 47.5503 10.7872C52.7017 12.3854 57.2741 15.3001 60.7735 19.2162L60.6013 19.3699Z" fill="url(#paint67_linear_5455_29943)"/>
<path d="M9.13618 11.4649C8.96421 11.2982 8.68959 11.3025 8.52294 11.4744C8.35621 11.6464 8.36049 11.921 8.53246 12.0877C8.70444 12.2543 8.97906 12.25 9.14574 12.0781C9.31243 11.9062 9.30813 11.6316 9.13618 11.4649Z" fill="url(#paint68_linear_5455_29943)"/>
<path d="M1.96192 46.3559L1.79541 46.1964C5.57445 42.2557 11.3631 39.8152 18.095 39.3245C23.4054 38.9384 28.7845 39.6895 33.9865 40.417C34.7685 40.5263 35.55 40.6356 36.331 40.7412C41.9094 41.4946 48.3735 42.1845 54.4954 40.8194C56.9144 40.28 61.1375 38.8212 62.2417 35.1103L62.4627 35.1761C61.325 38.9999 57.0142 40.4943 54.5457 41.0447C48.3867 42.4181 41.8983 41.726 36.3002 40.9697C35.5188 40.8642 34.7369 40.7549 33.9546 40.6455C28.7646 39.92 23.3979 39.1693 18.1117 39.5548C11.4369 40.0412 5.7014 42.4567 1.96192 46.3559Z" fill="url(#paint69_linear_5455_29943)"/>
<path d="M1.58947 45.9633C1.42215 46.1346 1.42537 46.4092 1.59672 46.5766C1.76807 46.7439 2.04268 46.7406 2.21004 46.5693C2.37736 46.398 2.37413 46.1233 2.20275 45.956C2.03144 45.7887 1.75679 45.7919 1.58947 45.9633Z" fill="url(#paint70_linear_5455_29943)"/>
<path d="M9.15884 39.0125L8.9502 38.9143C10.7717 35.0477 13.8169 31.8706 17.5247 29.9681C21.3683 27.9961 25.7891 27.4461 29.9726 28.4183C32.447 28.9935 34.799 30.0916 37.0735 31.1535C38.9041 32.008 40.7972 32.8916 42.7416 33.4968C48.3124 35.23 54.4903 34.6737 59.6913 31.971L59.7977 32.1756C54.5432 34.9067 48.3017 35.4679 42.6731 33.7171C40.7137 33.1075 38.8135 32.2203 36.9759 31.3623C34.7122 30.3057 32.3714 29.2127 29.9203 28.6432C25.7901 27.6827 21.4251 28.2261 17.6299 30.1736C13.9673 32.0528 10.9589 35.1919 9.15884 39.0125Z" fill="url(#paint71_linear_5455_29943)"/>
<path d="M8.68775 38.7565C8.58116 38.971 8.6686 39.2314 8.88305 39.338C9.09751 39.4446 9.35787 39.3572 9.46447 39.1427C9.57106 38.9282 9.48362 38.6679 9.26913 38.5613C9.05468 38.4546 8.79435 38.5421 8.68775 38.7565Z" fill="url(#paint72_linear_5455_29943)"/>
<path d="M17.5361 35.9811L17.3337 35.8703C20.7712 29.588 27.1887 25.1559 34.0813 24.3037C38.1125 23.8053 42.212 24.467 46.1769 25.1068C50.1272 25.7445 54.212 26.4034 58.2113 25.9082L58.2397 26.1371C54.2076 26.6364 50.1064 25.9747 46.1402 25.3346C42.1911 24.6972 38.1072 24.0385 34.1097 24.5325C27.2893 25.3759 20.9386 29.7627 17.5361 35.9811Z" fill="url(#paint73_linear_5455_29943)"/>
<path d="M17.0754 35.6982C16.9579 35.9069 17.0318 36.1714 17.2405 36.2889C17.4492 36.4065 17.7137 36.3325 17.8312 36.1239C17.9487 35.9152 17.8748 35.6507 17.6661 35.5332C17.4574 35.4156 17.1929 35.4896 17.0754 35.6982Z" fill="url(#paint74_linear_5455_29943)"/>
<path d="M21.9522 22.3012C18.8754 22.3012 15.5967 21.6643 12.8533 19.6772L12.9887 19.4902C17.3586 22.6556 23.1304 22.3379 27.2028 21.5138C29.3495 21.0794 31.4957 20.4488 33.5713 19.8389C36.3132 19.0333 39.1485 18.2003 42.0226 17.8081C48.0119 16.9903 53.1954 18.5 56.2436 21.9498L56.0708 22.1025C53.0745 18.7118 47.9666 17.23 42.0537 18.0366C39.1968 18.4265 36.3701 19.257 33.6363 20.0602C31.5561 20.6714 29.4051 21.3036 27.2485 21.74C25.6763 22.0582 23.8526 22.3012 21.9522 22.3012Z" fill="url(#paint75_linear_5455_29943)"/>
<path d="M13.1964 19.2362C13.0017 19.0967 12.7307 19.1416 12.5913 19.3363C12.4519 19.5311 12.4968 19.8021 12.6915 19.9415C12.8863 20.0809 13.1572 20.036 13.2966 19.8413C13.436 19.6465 13.3911 19.3756 13.1964 19.2362Z" fill="url(#paint76_linear_5455_29943)"/>
<path d="M51.2845 42.5885C46.0566 42.5885 39.707 41.3646 38.6379 41.1508L38.6832 40.9246C40.3609 41.2601 55.1517 44.1063 57.8329 40.7568C58.3309 40.1345 58.3584 39.3124 57.9144 38.3132C57.3911 37.136 58.1701 36.1433 58.4212 35.8673C58.7971 35.4537 58.9753 34.8226 58.8449 34.3666C58.7044 33.8748 58.1657 33.2962 58.1603 33.2904L58.0819 33.2068L58.1652 33.1277C58.1711 33.1221 58.7545 32.5581 58.6175 31.7712C58.5343 31.2927 58.3077 31.0552 58.0679 30.8038C57.9011 30.6289 57.7286 30.4482 57.6145 30.1873C57.4019 29.7013 58.1612 29.3515 59.1227 28.9083C59.6187 28.6796 60.1317 28.4433 60.5395 28.1729C60.8142 27.9909 60.9559 27.7854 60.9728 27.5448C61.0248 26.8033 59.9195 25.8235 58.8506 24.8759C58.555 24.6138 58.2493 24.343 57.9776 24.0842C56.3602 22.5438 56.3866 21.4506 56.444 19.0555C56.5392 15.096 55.2842 11.6659 52.8146 9.13625C49.7891 6.03727 45.0003 4.33049 39.3301 4.33049C36.6957 4.33049 34.1856 4.88372 31.8675 5.97504L31.9149 6.10156L31.6988 6.18245L31.5771 5.8578L31.6725 5.8122C34.0483 4.67592 36.6247 4.09982 39.33 4.09982C45.0629 4.09982 49.9104 5.83125 52.9796 8.97509C55.4936 11.5504 56.7713 15.038 56.6747 19.0609C56.6171 21.4558 56.5933 22.4471 58.1366 23.917C58.4054 24.1732 58.7094 24.4426 59.0036 24.7033C60.1143 25.6878 61.2628 26.7059 61.2028 27.561C61.181 27.8735 61.0006 28.144 60.6669 28.3653C60.2443 28.6453 59.7231 28.8855 59.2192 29.1177C58.4742 29.4611 57.7038 29.8162 57.8257 30.0949C57.9235 30.3184 58.0746 30.4767 58.2347 30.6444C58.4761 30.8974 58.7494 31.184 58.8447 31.7314C58.9722 32.4646 58.5756 33.0129 58.4008 33.2132C58.5619 33.3987 58.9424 33.8684 59.0667 34.303C59.2175 34.8307 59.0178 35.5539 58.5919 36.0223C58.3644 36.2724 57.6587 37.17 58.1252 38.2194C58.607 39.3038 58.5692 40.2059 58.013 40.9009C56.9947 42.1732 54.3298 42.5885 51.2845 42.5885Z" fill="url(#paint77_linear_5455_29943)"/>
<path d="M49.3116 20.2377C45.0253 17.2374 39.7566 14.2065 35.8606 12.3391C33.6591 11.1671 30.4413 13.1877 30.2696 16.0263C29.9101 21.0085 29.9101 25.9908 30.2696 30.9735C30.4413 33.8121 33.6591 35.8327 35.8606 34.6611C39.7566 32.7937 45.0253 29.7628 49.3112 26.7625C50.4803 25.9387 50.9934 24.7159 51 23.5003C50.9934 22.2848 50.4808 21.062 49.3112 20.2381L49.3116 20.2377Z" fill="url(#paint78_linear_5455_29943)"/>
<defs>
<linearGradient id="paint0_linear_5455_29943" x1="22.5197" y1="15.3619" x2="56.7154" y2="15.3619" gradientUnits="userSpaceOnUse">
<stop offset="0.159" stop-color="#005C7D"/>
<stop offset="0.1723" stop-color="#005A7A"/>
<stop offset="0.4484" stop-color="#003346"/>
<stop offset="0.6882" stop-color="#001720"/>
<stop offset="0.8801" stop-color="#000609"/>
<stop offset="1"/>
</linearGradient>
<linearGradient id="paint1_linear_5455_29943" x1="22.52" y1="12.523" x2="56.7154" y2="12.523" gradientUnits="userSpaceOnUse">
<stop offset="0.159" stop-color="#005C7D"/>
<stop offset="0.1723" stop-color="#005A7A"/>
<stop offset="0.4484" stop-color="#003346"/>
<stop offset="0.6882" stop-color="#001720"/>
<stop offset="0.8801" stop-color="#000609"/>
<stop offset="1"/>
</linearGradient>
<linearGradient id="paint2_linear_5455_29943" x1="26.5944" y1="22.5596" x2="53.1681" y2="22.5596" gradientUnits="userSpaceOnUse">
<stop offset="0.159" stop-color="#005C7D"/>
<stop offset="0.1723" stop-color="#005A7A"/>
<stop offset="0.4484" stop-color="#003346"/>
<stop offset="0.6882" stop-color="#001720"/>
<stop offset="0.8801" stop-color="#000609"/>
<stop offset="1"/>
</linearGradient>
<linearGradient id="paint3_linear_5455_29943" x1="26.5945" y1="24.7" x2="53.1687" y2="24.7" gradientUnits="userSpaceOnUse">
<stop offset="0.159" stop-color="#005C7D"/>
<stop offset="0.1723" stop-color="#005A7A"/>
<stop offset="0.4484" stop-color="#003346"/>
<stop offset="0.6882" stop-color="#001720"/>
<stop offset="0.8801" stop-color="#000609"/>
<stop offset="1"/>
</linearGradient>
<linearGradient id="paint4_linear_5455_29943" x1="24.662" y1="33.7917" x2="55.0907" y2="33.7917" gradientUnits="userSpaceOnUse">
<stop offset="0.159" stop-color="#005C7D"/>
<stop offset="0.1723" stop-color="#005A7A"/>
<stop offset="0.4484" stop-color="#003346"/>
<stop offset="0.6882" stop-color="#001720"/>
<stop offset="0.8801" stop-color="#000609"/>
<stop offset="1"/>
</linearGradient>
<linearGradient id="paint5_linear_5455_29943" x1="24.6619" y1="32.563" x2="55.0909" y2="32.563" gradientUnits="userSpaceOnUse">
<stop offset="0.159" stop-color="#005C7D"/>
<stop offset="0.1723" stop-color="#005A7A"/>
<stop offset="0.4484" stop-color="#003346"/>
<stop offset="0.6882" stop-color="#001720"/>
<stop offset="0.8801" stop-color="#000609"/>
<stop offset="1"/>
</linearGradient>
<linearGradient id="paint6_linear_5455_29943" x1="11.1305" y1="33.9724" x2="56.8347" y2="33.9724" gradientUnits="userSpaceOnUse">
<stop offset="0.159" stop-color="#005C7D"/>
<stop offset="0.1723" stop-color="#005A7A"/>
<stop offset="0.4484" stop-color="#003346"/>
<stop offset="0.6882" stop-color="#001720"/>
<stop offset="0.8801" stop-color="#000609"/>
<stop offset="1"/>
</linearGradient>
<linearGradient id="paint7_linear_5455_29943" x1="11.1304" y1="30.3087" x2="56.8343" y2="30.3087" gradientUnits="userSpaceOnUse">
<stop offset="0.159" stop-color="#005C7D"/>
<stop offset="0.1723" stop-color="#005A7A"/>
<stop offset="0.4484" stop-color="#003346"/>
<stop offset="0.6882" stop-color="#001720"/>
<stop offset="0.8801" stop-color="#000609"/>
<stop offset="1"/>
</linearGradient>
<linearGradient id="paint8_linear_5455_29943" x1="17.6718" y1="39.637" x2="52.8077" y2="39.637" gradientUnits="userSpaceOnUse">
<stop offset="0.159" stop-color="#005C7D"/>
<stop offset="0.1723" stop-color="#005A7A"/>
<stop offset="0.4484" stop-color="#003346"/>
<stop offset="0.6882" stop-color="#001720"/>
<stop offset="0.8801" stop-color="#000609"/>
<stop offset="1"/>
</linearGradient>
<linearGradient id="paint9_linear_5455_29943" x1="17.6718" y1="37.5702" x2="52.8082" y2="37.5702" gradientUnits="userSpaceOnUse">
<stop offset="0.159" stop-color="#005C7D"/>
<stop offset="0.1723" stop-color="#005A7A"/>
<stop offset="0.4484" stop-color="#003346"/>
<stop offset="0.6882" stop-color="#001720"/>
<stop offset="0.8801" stop-color="#000609"/>
<stop offset="1"/>
</linearGradient>
<linearGradient id="paint10_linear_5455_29943" x1="25.3252" y1="9.07873" x2="54.1723" y2="9.07873" gradientUnits="userSpaceOnUse">
<stop offset="0.159" stop-color="#005C7D"/>
<stop offset="0.1723" stop-color="#005A7A"/>
<stop offset="0.4484" stop-color="#003346"/>
<stop offset="0.6882" stop-color="#001720"/>
<stop offset="0.8801" stop-color="#000609"/>
<stop offset="1"/>
</linearGradient>
<linearGradient id="paint11_linear_5455_29943" x1="25.3252" y1="5.83452" x2="54.1721" y2="5.83452" gradientUnits="userSpaceOnUse">
<stop offset="0.159" stop-color="#005C7D"/>
<stop offset="0.1723" stop-color="#005A7A"/>
<stop offset="0.4484" stop-color="#003346"/>
<stop offset="0.6882" stop-color="#001720"/>
<stop offset="0.8801" stop-color="#000609"/>
<stop offset="1"/>
</linearGradient>
<linearGradient id="paint12_linear_5455_29943" x1="36.9055" y1="4.70483" x2="51.0839" y2="4.70483" gradientUnits="userSpaceOnUse">
<stop offset="0.159" stop-color="#005C7D"/>
<stop offset="0.1723" stop-color="#005A7A"/>
<stop offset="0.4484" stop-color="#003346"/>
<stop offset="0.6882" stop-color="#001720"/>
<stop offset="0.8801" stop-color="#000609"/>
<stop offset="1"/>
</linearGradient>
<linearGradient id="paint13_linear_5455_29943" x1="36.9053" y1="1.347" x2="51.0842" y2="1.347" gradientUnits="userSpaceOnUse">
<stop offset="0.159" stop-color="#005C7D"/>
<stop offset="0.1723" stop-color="#005A7A"/>
<stop offset="0.4484" stop-color="#003346"/>
<stop offset="0.6882" stop-color="#001720"/>
<stop offset="0.8801" stop-color="#000609"/>
<stop offset="1"/>
</linearGradient>
<linearGradient id="paint14_linear_5455_29943" x1="16.0987" y1="18.4364" x2="53.519" y2="18.4364" gradientUnits="userSpaceOnUse">
<stop offset="0.159" stop-color="#005C7D"/>
<stop offset="0.1723" stop-color="#005A7A"/>
<stop offset="0.4484" stop-color="#003346"/>
<stop offset="0.6882" stop-color="#001720"/>
<stop offset="0.8801" stop-color="#000609"/>
<stop offset="1"/>
</linearGradient>
<linearGradient id="paint15_linear_5455_29943" x1="16.0989" y1="16.6306" x2="53.5193" y2="16.6306" gradientUnits="userSpaceOnUse">
<stop offset="0.159" stop-color="#005C7D"/>
<stop offset="0.1723" stop-color="#005A7A"/>
<stop offset="0.4484" stop-color="#003346"/>
<stop offset="0.6882" stop-color="#001720"/>
<stop offset="0.8801" stop-color="#000609"/>
<stop offset="1"/>
</linearGradient>
<linearGradient id="paint16_linear_5455_29943" x1="8.70489" y1="32.3534" x2="51.5068" y2="32.3534" gradientUnits="userSpaceOnUse">
<stop offset="0.159" stop-color="#005C7D"/>
<stop offset="0.1723" stop-color="#005A7A"/>
<stop offset="0.4484" stop-color="#003346"/>
<stop offset="0.6882" stop-color="#001720"/>
<stop offset="0.8801" stop-color="#000609"/>
<stop offset="1"/>
</linearGradient>
<linearGradient id="paint17_linear_5455_29943" x1="8.70495" y1="35.0844" x2="51.507" y2="35.0844" gradientUnits="userSpaceOnUse">
<stop offset="0.159" stop-color="#005C7D"/>
<stop offset="0.1723" stop-color="#005A7A"/>
<stop offset="0.4484" stop-color="#003346"/>
<stop offset="0.6882" stop-color="#001720"/>
<stop offset="0.8801" stop-color="#000609"/>
<stop offset="1"/>
</linearGradient>
<linearGradient id="paint18_linear_5455_29943" x1="35.5352" y1="26.5906" x2="51.1892" y2="26.5906" gradientUnits="userSpaceOnUse">
<stop offset="0.159" stop-color="#005C7D"/>
<stop offset="0.1723" stop-color="#005A7A"/>
<stop offset="0.4484" stop-color="#003346"/>
<stop offset="0.6882" stop-color="#001720"/>
<stop offset="0.8801" stop-color="#000609"/>
<stop offset="1"/>
</linearGradient>
<linearGradient id="paint19_linear_5455_29943" x1="35.5352" y1="26.4616" x2="51.1892" y2="26.4616" gradientUnits="userSpaceOnUse">
<stop offset="0.159" stop-color="#005C7D"/>
<stop offset="0.1723" stop-color="#005A7A"/>
<stop offset="0.4484" stop-color="#003346"/>
<stop offset="0.6882" stop-color="#001720"/>
<stop offset="0.8801" stop-color="#000609"/>
<stop offset="1"/>
</linearGradient>
<linearGradient id="paint20_linear_5455_29943" x1="37.8306" y1="24.7809" x2="48.3119" y2="24.7809" gradientUnits="userSpaceOnUse">
<stop offset="0.159" stop-color="#005C7D"/>
<stop offset="0.1723" stop-color="#005A7A"/>
<stop offset="0.4484" stop-color="#003346"/>
<stop offset="0.6882" stop-color="#001720"/>
<stop offset="0.8801" stop-color="#000609"/>
<stop offset="1"/>
</linearGradient>
<linearGradient id="paint21_linear_5455_29943" x1="37.8307" y1="25.3103" x2="48.3118" y2="25.3103" gradientUnits="userSpaceOnUse">
<stop offset="0.159" stop-color="#005C7D"/>
<stop offset="0.1723" stop-color="#005A7A"/>
<stop offset="0.4484" stop-color="#003346"/>
<stop offset="0.6882" stop-color="#001720"/>
<stop offset="0.8801" stop-color="#000609"/>
<stop offset="1"/>
</linearGradient>
<linearGradient id="paint22_linear_5455_29943" x1="21.2668" y1="28.868" x2="45.6529" y2="28.868" gradientUnits="userSpaceOnUse">
<stop offset="0.159" stop-color="#005C7D"/>
<stop offset="0.1723" stop-color="#005A7A"/>
<stop offset="0.4484" stop-color="#003346"/>
<stop offset="0.6882" stop-color="#001720"/>
<stop offset="0.8801" stop-color="#000609"/>
<stop offset="1"/>
</linearGradient>
<linearGradient id="paint23_linear_5455_29943" x1="21.2666" y1="26.2412" x2="45.6529" y2="26.2412" gradientUnits="userSpaceOnUse">
<stop offset="0.159" stop-color="#005C7D"/>
<stop offset="0.1723" stop-color="#005A7A"/>
<stop offset="0.4484" stop-color="#003346"/>
<stop offset="0.6882" stop-color="#001720"/>
<stop offset="0.8801" stop-color="#000609"/>
<stop offset="1"/>
</linearGradient>
<linearGradient id="paint24_linear_5455_29943" x1="0.901986" y1="6.86885" x2="54.4787" y2="6.86885" gradientUnits="userSpaceOnUse">
<stop offset="0.1157" stop-color="#85FBFF"/>
<stop offset="0.4263" stop-color="#00729B"/>
<stop offset="0.4377" stop-color="#006D95"/>
<stop offset="0.5466" stop-color="#004162"/>
<stop offset="0.6289" stop-color="#002543"/>
<stop offset="0.6745" stop-color="#001B37"/>
<stop offset="0.7436" stop-color="#001020"/>
<stop offset="0.8229" stop-color="#00070E"/>
<stop offset="0.9063" stop-color="#000204"/>
<stop offset="1"/>
</linearGradient>
<linearGradient id="paint25_linear_5455_29943" x1="0.901836" y1="2.18088" x2="54.4781" y2="2.18088" gradientUnits="userSpaceOnUse">
<stop offset="0.1157" stop-color="#85FBFF"/>
<stop offset="0.4263" stop-color="#00729B"/>
<stop offset="0.4377" stop-color="#006D95"/>
<stop offset="0.5466" stop-color="#004162"/>
<stop offset="0.6289" stop-color="#002543"/>
<stop offset="0.6745" stop-color="#001B37"/>
<stop offset="0.7436" stop-color="#001020"/>
<stop offset="0.8229" stop-color="#00070E"/>
<stop offset="0.9063" stop-color="#000204"/>
<stop offset="1"/>
</linearGradient>
<linearGradient id="paint26_linear_5455_29943" x1="8.82764" y1="17.4269" x2="62.0471" y2="17.4269" gradientUnits="userSpaceOnUse">
<stop offset="0.1157" stop-color="#85FBFF"/>
<stop offset="0.4263" stop-color="#00729B"/>
<stop offset="0.4377" stop-color="#006D95"/>
<stop offset="0.5466" stop-color="#004162"/>
<stop offset="0.6289" stop-color="#002543"/>
<stop offset="0.6745" stop-color="#001B37"/>
<stop offset="0.7436" stop-color="#001020"/>
<stop offset="0.8229" stop-color="#00070E"/>
<stop offset="0.9063" stop-color="#000204"/>
<stop offset="1"/>
</linearGradient>
<linearGradient id="paint27_linear_5455_29943" x1="8.8277" y1="24.6955" x2="62.0473" y2="24.6955" gradientUnits="userSpaceOnUse">
<stop offset="0.1157" stop-color="#85FBFF"/>
<stop offset="0.4263" stop-color="#00729B"/>
<stop offset="0.4377" stop-color="#006D95"/>
<stop offset="0.5466" stop-color="#004162"/>
<stop offset="0.6289" stop-color="#002543"/>
<stop offset="0.6745" stop-color="#001B37"/>
<stop offset="0.7436" stop-color="#001020"/>
<stop offset="0.8229" stop-color="#00070E"/>
<stop offset="0.9063" stop-color="#000204"/>
<stop offset="1"/>
</linearGradient>
<linearGradient id="paint28_linear_5455_29943" x1="8.43897" y1="14.7107" x2="60.7735" y2="14.7107" gradientUnits="userSpaceOnUse">
<stop offset="0.1157" stop-color="#85FBFF"/>
<stop offset="0.4263" stop-color="#00729B"/>
<stop offset="0.4377" stop-color="#006D95"/>
<stop offset="0.5466" stop-color="#004162"/>
<stop offset="0.6289" stop-color="#002543"/>
<stop offset="0.6745" stop-color="#001B37"/>
<stop offset="0.7436" stop-color="#001020"/>
<stop offset="0.8229" stop-color="#00070E"/>
<stop offset="0.9063" stop-color="#000204"/>
<stop offset="1"/>
</linearGradient>
<linearGradient id="paint29_linear_5455_29943" x1="8.43897" y1="12.0763" x2="60.7737" y2="12.0763" gradientUnits="userSpaceOnUse">
<stop offset="0.1157" stop-color="#85FBFF"/>
<stop offset="0.4263" stop-color="#00729B"/>
<stop offset="0.4377" stop-color="#006D95"/>
<stop offset="0.5466" stop-color="#004162"/>
<stop offset="0.6289" stop-color="#002543"/>
<stop offset="0.6745" stop-color="#001B37"/>
<stop offset="0.7436" stop-color="#001020"/>
<stop offset="0.8229" stop-color="#00070E"/>
<stop offset="0.9063" stop-color="#000204"/>
<stop offset="1"/>
</linearGradient>
<linearGradient id="paint30_linear_5455_29943" x1="1.5118" y1="41.0331" x2="62.4624" y2="41.0331" gradientUnits="userSpaceOnUse">
<stop offset="0.1157" stop-color="#85FBFF"/>
<stop offset="0.4263" stop-color="#00729B"/>
<stop offset="0.4377" stop-color="#006D95"/>
<stop offset="0.5466" stop-color="#004162"/>
<stop offset="0.6289" stop-color="#002543"/>
<stop offset="0.6745" stop-color="#001B37"/>
<stop offset="0.7436" stop-color="#001020"/>
<stop offset="0.8229" stop-color="#00070E"/>
<stop offset="0.9063" stop-color="#000204"/>
<stop offset="1"/>
</linearGradient>
<linearGradient id="paint31_linear_5455_29943" x1="1.5117" y1="46.5663" x2="62.4626" y2="46.5663" gradientUnits="userSpaceOnUse">
<stop offset="0.1157" stop-color="#85FBFF"/>
<stop offset="0.4263" stop-color="#00729B"/>
<stop offset="0.4377" stop-color="#006D95"/>
<stop offset="0.5466" stop-color="#004162"/>
<stop offset="0.6289" stop-color="#002543"/>
<stop offset="0.6745" stop-color="#001B37"/>
<stop offset="0.7436" stop-color="#001020"/>
<stop offset="0.8229" stop-color="#00070E"/>
<stop offset="0.9063" stop-color="#000204"/>
<stop offset="1"/>
</linearGradient>
<linearGradient id="paint32_linear_5455_29943" x1="8.7776" y1="33.7809" x2="59.7974" y2="33.7809" gradientUnits="userSpaceOnUse">
<stop offset="0.1157" stop-color="#85FBFF"/>
<stop offset="0.4263" stop-color="#00729B"/>
<stop offset="0.4377" stop-color="#006D95"/>
<stop offset="0.5466" stop-color="#004162"/>
<stop offset="0.6289" stop-color="#002543"/>
<stop offset="0.6745" stop-color="#001B37"/>
<stop offset="0.7436" stop-color="#001020"/>
<stop offset="0.8229" stop-color="#00070E"/>
<stop offset="0.9063" stop-color="#000204"/>
<stop offset="1"/>
</linearGradient>
<linearGradient id="paint33_linear_5455_29943" x1="8.77765" y1="39.2496" x2="59.798" y2="39.2496" gradientUnits="userSpaceOnUse">
<stop offset="0.1157" stop-color="#85FBFF"/>
<stop offset="0.4263" stop-color="#00729B"/>
<stop offset="0.4377" stop-color="#006D95"/>
<stop offset="0.5466" stop-color="#004162"/>
<stop offset="0.6289" stop-color="#002543"/>
<stop offset="0.6745" stop-color="#001B37"/>
<stop offset="0.7436" stop-color="#001020"/>
<stop offset="0.8229" stop-color="#00070E"/>
<stop offset="0.9063" stop-color="#000204"/>
<stop offset="1"/>
</linearGradient>
<linearGradient id="paint34_linear_5455_29943" x1="17.1383" y1="30.355" x2="58.2398" y2="30.355" gradientUnits="userSpaceOnUse">
<stop offset="0.1157" stop-color="#85FBFF"/>
<stop offset="0.4263" stop-color="#00729B"/>
<stop offset="0.4377" stop-color="#006D95"/>
<stop offset="0.5466" stop-color="#004162"/>
<stop offset="0.6289" stop-color="#002543"/>
<stop offset="0.6745" stop-color="#001B37"/>
<stop offset="0.7436" stop-color="#001020"/>
<stop offset="0.8229" stop-color="#00070E"/>
<stop offset="0.9063" stop-color="#000204"/>
<stop offset="1"/>
</linearGradient>
<linearGradient id="paint35_linear_5455_29943" x1="17.1383" y1="36.2111" x2="58.2396" y2="36.2111" gradientUnits="userSpaceOnUse">
<stop offset="0.1157" stop-color="#85FBFF"/>
<stop offset="0.4263" stop-color="#00729B"/>
<stop offset="0.4377" stop-color="#006D95"/>
<stop offset="0.5466" stop-color="#004162"/>
<stop offset="0.6289" stop-color="#002543"/>
<stop offset="0.6745" stop-color="#001B37"/>
<stop offset="0.7436" stop-color="#001020"/>
<stop offset="0.8229" stop-color="#00070E"/>
<stop offset="0.9063" stop-color="#000204"/>
<stop offset="1"/>
</linearGradient>
<linearGradient id="paint36_linear_5455_29943" x1="12.5206" y1="20.2458" x2="56.2437" y2="20.2458" gradientUnits="userSpaceOnUse">
<stop offset="0.1157" stop-color="#85FBFF"/>
<stop offset="0.4263" stop-color="#00729B"/>
<stop offset="0.4377" stop-color="#006D95"/>
<stop offset="0.5466" stop-color="#004162"/>
<stop offset="0.6289" stop-color="#002543"/>
<stop offset="0.6745" stop-color="#001B37"/>
<stop offset="0.7436" stop-color="#001020"/>
<stop offset="0.8229" stop-color="#00070E"/>
<stop offset="0.9063" stop-color="#000204"/>
<stop offset="1"/>
</linearGradient>
<linearGradient id="paint37_linear_5455_29943" x1="12.5205" y1="19.8888" x2="56.2435" y2="19.8888" gradientUnits="userSpaceOnUse">
<stop offset="0.1157" stop-color="#85FBFF"/>
<stop offset="0.4263" stop-color="#00729B"/>
<stop offset="0.4377" stop-color="#006D95"/>
<stop offset="0.5466" stop-color="#004162"/>
<stop offset="0.6289" stop-color="#002543"/>
<stop offset="0.6745" stop-color="#001B37"/>
<stop offset="0.7436" stop-color="#001020"/>
<stop offset="0.8229" stop-color="#00070E"/>
<stop offset="0.9063" stop-color="#000204"/>
<stop offset="1"/>
</linearGradient>
<linearGradient id="paint38_linear_5455_29943" x1="31.5773" y1="23.6442" x2="61.2052" y2="23.6442" gradientUnits="userSpaceOnUse">
<stop/>
<stop offset="0.0937" stop-color="#000204"/>
<stop offset="0.1771" stop-color="#00070E"/>
<stop offset="0.2564" stop-color="#001020"/>
<stop offset="0.3255" stop-color="#001B37"/>
<stop offset="0.3711" stop-color="#002543"/>
<stop offset="0.4534" stop-color="#004162"/>
<stop offset="0.5623" stop-color="#006D95"/>
<stop offset="0.5737" stop-color="#00729B"/>
<stop offset="0.8843" stop-color="#85FBFE"/>
</linearGradient>
<linearGradient id="paint39_linear_5455_29943" x1="22.5197" y1="15.0619" x2="56.7154" y2="15.0619" gradientUnits="userSpaceOnUse">
<stop offset="0.159" stop-color="#005C7D"/>
<stop offset="0.1723" stop-color="#005A7A"/>
<stop offset="0.4484" stop-color="#003346"/>
<stop offset="0.6882" stop-color="#001720"/>
<stop offset="0.8801" stop-color="#000609"/>
<stop offset="1"/>
</linearGradient>
<linearGradient id="paint40_linear_5455_29943" x1="22.52" y1="12.223" x2="56.7154" y2="12.223" gradientUnits="userSpaceOnUse">
<stop offset="0.159" stop-color="#005C7D"/>
<stop offset="0.1723" stop-color="#005A7A"/>
<stop offset="0.4484" stop-color="#003346"/>
<stop offset="0.6882" stop-color="#001720"/>
<stop offset="0.8801" stop-color="#000609"/>
<stop offset="1"/>
</linearGradient>
<linearGradient id="paint41_linear_5455_29943" x1="26.5944" y1="22.2596" x2="53.1681" y2="22.2596" gradientUnits="userSpaceOnUse">
<stop offset="0.159" stop-color="#005C7D"/>
<stop offset="0.1723" stop-color="#005A7A"/>
<stop offset="0.4484" stop-color="#003346"/>
<stop offset="0.6882" stop-color="#001720"/>
<stop offset="0.8801" stop-color="#000609"/>
<stop offset="1"/>
</linearGradient>
<linearGradient id="paint42_linear_5455_29943" x1="26.5945" y1="24.4" x2="53.1687" y2="24.4" gradientUnits="userSpaceOnUse">
<stop offset="0.159" stop-color="#005C7D"/>
<stop offset="0.1723" stop-color="#005A7A"/>
<stop offset="0.4484" stop-color="#003346"/>
<stop offset="0.6882" stop-color="#001720"/>
<stop offset="0.8801" stop-color="#000609"/>
<stop offset="1"/>
</linearGradient>
<linearGradient id="paint43_linear_5455_29943" x1="24.662" y1="33.4917" x2="55.0907" y2="33.4917" gradientUnits="userSpaceOnUse">
<stop offset="0.159" stop-color="#005C7D"/>
<stop offset="0.1723" stop-color="#005A7A"/>
<stop offset="0.4484" stop-color="#003346"/>
<stop offset="0.6882" stop-color="#001720"/>
<stop offset="0.8801" stop-color="#000609"/>
<stop offset="1"/>
</linearGradient>
<linearGradient id="paint44_linear_5455_29943" x1="24.6619" y1="32.263" x2="55.0909" y2="32.263" gradientUnits="userSpaceOnUse">
<stop offset="0.159" stop-color="#005C7D"/>
<stop offset="0.1723" stop-color="#005A7A"/>
<stop offset="0.4484" stop-color="#003346"/>
<stop offset="0.6882" stop-color="#001720"/>
<stop offset="0.8801" stop-color="#000609"/>
<stop offset="1"/>
</linearGradient>
<linearGradient id="paint45_linear_5455_29943" x1="11.1305" y1="33.6724" x2="56.8347" y2="33.6724" gradientUnits="userSpaceOnUse">
<stop offset="0.159" stop-color="#005C7D"/>
<stop offset="0.1723" stop-color="#005A7A"/>
<stop offset="0.4484" stop-color="#003346"/>
<stop offset="0.6882" stop-color="#001720"/>
<stop offset="0.8801" stop-color="#000609"/>
<stop offset="1"/>
</linearGradient>
<linearGradient id="paint46_linear_5455_29943" x1="11.1304" y1="30.0087" x2="56.8343" y2="30.0087" gradientUnits="userSpaceOnUse">
<stop offset="0.159" stop-color="#005C7D"/>
<stop offset="0.1723" stop-color="#005A7A"/>
<stop offset="0.4484" stop-color="#003346"/>
<stop offset="0.6882" stop-color="#001720"/>
<stop offset="0.8801" stop-color="#000609"/>
<stop offset="1"/>
</linearGradient>
<linearGradient id="paint47_linear_5455_29943" x1="17.6718" y1="39.337" x2="52.8077" y2="39.337" gradientUnits="userSpaceOnUse">
<stop offset="0.159" stop-color="#005C7D"/>
<stop offset="0.1723" stop-color="#005A7A"/>
<stop offset="0.4484" stop-color="#003346"/>
<stop offset="0.6882" stop-color="#001720"/>
<stop offset="0.8801" stop-color="#000609"/>
<stop offset="1"/>
</linearGradient>
<linearGradient id="paint48_linear_5455_29943" x1="17.6718" y1="37.2702" x2="52.8082" y2="37.2702" gradientUnits="userSpaceOnUse">
<stop offset="0.159" stop-color="#005C7D"/>
<stop offset="0.1723" stop-color="#005A7A"/>
<stop offset="0.4484" stop-color="#003346"/>
<stop offset="0.6882" stop-color="#001720"/>
<stop offset="0.8801" stop-color="#000609"/>
<stop offset="1"/>
</linearGradient>
<linearGradient id="paint49_linear_5455_29943" x1="25.3252" y1="8.77873" x2="54.1723" y2="8.77873" gradientUnits="userSpaceOnUse">
<stop offset="0.159" stop-color="#005C7D"/>
<stop offset="0.1723" stop-color="#005A7A"/>
<stop offset="0.4484" stop-color="#003346"/>
<stop offset="0.6882" stop-color="#001720"/>
<stop offset="0.8801" stop-color="#000609"/>
<stop offset="1"/>
</linearGradient>
<linearGradient id="paint50_linear_5455_29943" x1="25.3252" y1="5.53452" x2="54.1721" y2="5.53452" gradientUnits="userSpaceOnUse">
<stop offset="0.159" stop-color="#005C7D"/>
<stop offset="0.1723" stop-color="#005A7A"/>
<stop offset="0.4484" stop-color="#003346"/>
<stop offset="0.6882" stop-color="#001720"/>
<stop offset="0.8801" stop-color="#000609"/>
<stop offset="1"/>
</linearGradient>
<linearGradient id="paint51_linear_5455_29943" x1="36.9055" y1="4.40483" x2="51.0839" y2="4.40483" gradientUnits="userSpaceOnUse">
<stop offset="0.159" stop-color="#005C7D"/>
<stop offset="0.1723" stop-color="#005A7A"/>
<stop offset="0.4484" stop-color="#003346"/>
<stop offset="0.6882" stop-color="#001720"/>
<stop offset="0.8801" stop-color="#000609"/>
<stop offset="1"/>
</linearGradient>
<linearGradient id="paint52_linear_5455_29943" x1="36.9053" y1="1.047" x2="51.0842" y2="1.047" gradientUnits="userSpaceOnUse">
<stop offset="0.159" stop-color="#005C7D"/>
<stop offset="0.1723" stop-color="#005A7A"/>
<stop offset="0.4484" stop-color="#003346"/>
<stop offset="0.6882" stop-color="#001720"/>
<stop offset="0.8801" stop-color="#000609"/>
<stop offset="1"/>
</linearGradient>
<linearGradient id="paint53_linear_5455_29943" x1="16.0987" y1="18.1364" x2="53.519" y2="18.1364" gradientUnits="userSpaceOnUse">
<stop offset="0.159" stop-color="#005C7D"/>
<stop offset="0.1723" stop-color="#005A7A"/>
<stop offset="0.4484" stop-color="#003346"/>
<stop offset="0.6882" stop-color="#001720"/>
<stop offset="0.8801" stop-color="#000609"/>
<stop offset="1"/>
</linearGradient>
<linearGradient id="paint54_linear_5455_29943" x1="16.0989" y1="16.3306" x2="53.5193" y2="16.3306" gradientUnits="userSpaceOnUse">
<stop offset="0.159" stop-color="#005C7D"/>
<stop offset="0.1723" stop-color="#005A7A"/>
<stop offset="0.4484" stop-color="#003346"/>
<stop offset="0.6882" stop-color="#001720"/>
<stop offset="0.8801" stop-color="#000609"/>
<stop offset="1"/>
</linearGradient>
<linearGradient id="paint55_linear_5455_29943" x1="8.70489" y1="32.0534" x2="51.5068" y2="32.0534" gradientUnits="userSpaceOnUse">
<stop offset="0.159" stop-color="#005C7D"/>
<stop offset="0.1723" stop-color="#005A7A"/>
<stop offset="0.4484" stop-color="#003346"/>
<stop offset="0.6882" stop-color="#001720"/>
<stop offset="0.8801" stop-color="#000609"/>
<stop offset="1"/>
</linearGradient>
<linearGradient id="paint56_linear_5455_29943" x1="8.70495" y1="34.7844" x2="51.507" y2="34.7844" gradientUnits="userSpaceOnUse">
<stop offset="0.159" stop-color="#005C7D"/>
<stop offset="0.1723" stop-color="#005A7A"/>
<stop offset="0.4484" stop-color="#003346"/>
<stop offset="0.6882" stop-color="#001720"/>
<stop offset="0.8801" stop-color="#000609"/>
<stop offset="1"/>
</linearGradient>
<linearGradient id="paint57_linear_5455_29943" x1="35.5352" y1="26.2906" x2="51.1892" y2="26.2906" gradientUnits="userSpaceOnUse">
<stop offset="0.159" stop-color="#005C7D"/>
<stop offset="0.1723" stop-color="#005A7A"/>
<stop offset="0.4484" stop-color="#003346"/>
<stop offset="0.6882" stop-color="#001720"/>
<stop offset="0.8801" stop-color="#000609"/>
<stop offset="1"/>
</linearGradient>
<linearGradient id="paint58_linear_5455_29943" x1="35.5352" y1="26.1616" x2="51.1892" y2="26.1616" gradientUnits="userSpaceOnUse">
<stop offset="0.159" stop-color="#005C7D"/>
<stop offset="0.1723" stop-color="#005A7A"/>
<stop offset="0.4484" stop-color="#003346"/>
<stop offset="0.6882" stop-color="#001720"/>
<stop offset="0.8801" stop-color="#000609"/>
<stop offset="1"/>
</linearGradient>
<linearGradient id="paint59_linear_5455_29943" x1="37.8306" y1="24.4809" x2="48.3119" y2="24.4809" gradientUnits="userSpaceOnUse">
<stop offset="0.159" stop-color="#005C7D"/>
<stop offset="0.1723" stop-color="#005A7A"/>
<stop offset="0.4484" stop-color="#003346"/>
<stop offset="0.6882" stop-color="#001720"/>
<stop offset="0.8801" stop-color="#000609"/>
<stop offset="1"/>
</linearGradient>
<linearGradient id="paint60_linear_5455_29943" x1="37.8307" y1="25.0103" x2="48.3118" y2="25.0103" gradientUnits="userSpaceOnUse">
<stop offset="0.159" stop-color="#005C7D"/>
<stop offset="0.1723" stop-color="#005A7A"/>
<stop offset="0.4484" stop-color="#003346"/>
<stop offset="0.6882" stop-color="#001720"/>
<stop offset="0.8801" stop-color="#000609"/>
<stop offset="1"/>
</linearGradient>
<linearGradient id="paint61_linear_5455_29943" x1="21.2668" y1="28.568" x2="45.6529" y2="28.568" gradientUnits="userSpaceOnUse">
<stop offset="0.159" stop-color="#005C7D"/>
<stop offset="0.1723" stop-color="#005A7A"/>
<stop offset="0.4484" stop-color="#003346"/>
<stop offset="0.6882" stop-color="#001720"/>
<stop offset="0.8801" stop-color="#000609"/>
<stop offset="1"/>
</linearGradient>
<linearGradient id="paint62_linear_5455_29943" x1="21.2666" y1="25.9412" x2="45.6529" y2="25.9412" gradientUnits="userSpaceOnUse">
<stop offset="0.159" stop-color="#005C7D"/>
<stop offset="0.1723" stop-color="#005A7A"/>
<stop offset="0.4484" stop-color="#003346"/>
<stop offset="0.6882" stop-color="#001720"/>
<stop offset="0.8801" stop-color="#000609"/>
<stop offset="1"/>
</linearGradient>
<linearGradient id="paint63_linear_5455_29943" x1="0.901986" y1="6.56884" x2="54.4787" y2="6.56884" gradientUnits="userSpaceOnUse">
<stop offset="0.1157" stop-color="#85FBFF"/>
<stop offset="0.4263" stop-color="#00729B"/>
<stop offset="0.4377" stop-color="#006D95"/>
<stop offset="0.5466" stop-color="#004162"/>
<stop offset="0.6289" stop-color="#002543"/>
<stop offset="0.6745" stop-color="#001B37"/>
<stop offset="0.7436" stop-color="#001020"/>
<stop offset="0.8229" stop-color="#00070E"/>
<stop offset="0.9063" stop-color="#000204"/>
<stop offset="1"/>
</linearGradient>
<linearGradient id="paint64_linear_5455_29943" x1="0.901836" y1="1.88087" x2="54.4781" y2="1.88087" gradientUnits="userSpaceOnUse">
<stop offset="0.1157" stop-color="#85FBFF"/>
<stop offset="0.4263" stop-color="#00729B"/>
<stop offset="0.4377" stop-color="#006D95"/>
<stop offset="0.5466" stop-color="#004162"/>
<stop offset="0.6289" stop-color="#002543"/>
<stop offset="0.6745" stop-color="#001B37"/>
<stop offset="0.7436" stop-color="#001020"/>
<stop offset="0.8229" stop-color="#00070E"/>
<stop offset="0.9063" stop-color="#000204"/>
<stop offset="1"/>
</linearGradient>
<linearGradient id="paint65_linear_5455_29943" x1="8.82764" y1="17.1269" x2="62.0471" y2="17.1269" gradientUnits="userSpaceOnUse">
<stop offset="0.1157" stop-color="#85FBFF"/>
<stop offset="0.4263" stop-color="#00729B"/>
<stop offset="0.4377" stop-color="#006D95"/>
<stop offset="0.5466" stop-color="#004162"/>
<stop offset="0.6289" stop-color="#002543"/>
<stop offset="0.6745" stop-color="#001B37"/>
<stop offset="0.7436" stop-color="#001020"/>
<stop offset="0.8229" stop-color="#00070E"/>
<stop offset="0.9063" stop-color="#000204"/>
<stop offset="1"/>
</linearGradient>
<linearGradient id="paint66_linear_5455_29943" x1="8.8277" y1="24.3955" x2="62.0473" y2="24.3955" gradientUnits="userSpaceOnUse">
<stop offset="0.1157" stop-color="#85FBFF"/>
<stop offset="0.4263" stop-color="#00729B"/>
<stop offset="0.4377" stop-color="#006D95"/>
<stop offset="0.5466" stop-color="#004162"/>
<stop offset="0.6289" stop-color="#002543"/>
<stop offset="0.6745" stop-color="#001B37"/>
<stop offset="0.7436" stop-color="#001020"/>
<stop offset="0.8229" stop-color="#00070E"/>
<stop offset="0.9063" stop-color="#000204"/>
<stop offset="1"/>
</linearGradient>
<linearGradient id="paint67_linear_5455_29943" x1="8.43897" y1="14.4107" x2="60.7735" y2="14.4107" gradientUnits="userSpaceOnUse">
<stop offset="0.1157" stop-color="#85FBFF"/>
<stop offset="0.4263" stop-color="#00729B"/>
<stop offset="0.4377" stop-color="#006D95"/>
<stop offset="0.5466" stop-color="#004162"/>
<stop offset="0.6289" stop-color="#002543"/>
<stop offset="0.6745" stop-color="#001B37"/>
<stop offset="0.7436" stop-color="#001020"/>
<stop offset="0.8229" stop-color="#00070E"/>
<stop offset="0.9063" stop-color="#000204"/>
<stop offset="1"/>
</linearGradient>
<linearGradient id="paint68_linear_5455_29943" x1="8.43897" y1="11.7763" x2="60.7737" y2="11.7763" gradientUnits="userSpaceOnUse">
<stop offset="0.1157" stop-color="#85FBFF"/>
<stop offset="0.4263" stop-color="#00729B"/>
<stop offset="0.4377" stop-color="#006D95"/>
<stop offset="0.5466" stop-color="#004162"/>
<stop offset="0.6289" stop-color="#002543"/>
<stop offset="0.6745" stop-color="#001B37"/>
<stop offset="0.7436" stop-color="#001020"/>
<stop offset="0.8229" stop-color="#00070E"/>
<stop offset="0.9063" stop-color="#000204"/>
<stop offset="1"/>
</linearGradient>
<linearGradient id="paint69_linear_5455_29943" x1="1.5118" y1="40.7331" x2="62.4624" y2="40.7331" gradientUnits="userSpaceOnUse">
<stop offset="0.1157" stop-color="#85FBFF"/>
<stop offset="0.4263" stop-color="#00729B"/>
<stop offset="0.4377" stop-color="#006D95"/>
<stop offset="0.5466" stop-color="#004162"/>
<stop offset="0.6289" stop-color="#002543"/>
<stop offset="0.6745" stop-color="#001B37"/>
<stop offset="0.7436" stop-color="#001020"/>
<stop offset="0.8229" stop-color="#00070E"/>
<stop offset="0.9063" stop-color="#000204"/>
<stop offset="1"/>
</linearGradient>
<linearGradient id="paint70_linear_5455_29943" x1="1.5117" y1="46.2663" x2="62.4626" y2="46.2663" gradientUnits="userSpaceOnUse">
<stop offset="0.1157" stop-color="#85FBFF"/>
<stop offset="0.4263" stop-color="#00729B"/>
<stop offset="0.4377" stop-color="#006D95"/>
<stop offset="0.5466" stop-color="#004162"/>
<stop offset="0.6289" stop-color="#002543"/>
<stop offset="0.6745" stop-color="#001B37"/>
<stop offset="0.7436" stop-color="#001020"/>
<stop offset="0.8229" stop-color="#00070E"/>
<stop offset="0.9063" stop-color="#000204"/>
<stop offset="1"/>
</linearGradient>
<linearGradient id="paint71_linear_5455_29943" x1="8.7776" y1="33.4809" x2="59.7974" y2="33.4809" gradientUnits="userSpaceOnUse">
<stop offset="0.1157" stop-color="#85FBFF"/>
<stop offset="0.4263" stop-color="#00729B"/>
<stop offset="0.4377" stop-color="#006D95"/>
<stop offset="0.5466" stop-color="#004162"/>
<stop offset="0.6289" stop-color="#002543"/>
<stop offset="0.6745" stop-color="#001B37"/>
<stop offset="0.7436" stop-color="#001020"/>
<stop offset="0.8229" stop-color="#00070E"/>
<stop offset="0.9063" stop-color="#000204"/>
<stop offset="1"/>
</linearGradient>
<linearGradient id="paint72_linear_5455_29943" x1="8.77765" y1="38.9496" x2="59.798" y2="38.9496" gradientUnits="userSpaceOnUse">
<stop offset="0.1157" stop-color="#85FBFF"/>
<stop offset="0.4263" stop-color="#00729B"/>
<stop offset="0.4377" stop-color="#006D95"/>
<stop offset="0.5466" stop-color="#004162"/>
<stop offset="0.6289" stop-color="#002543"/>
<stop offset="0.6745" stop-color="#001B37"/>
<stop offset="0.7436" stop-color="#001020"/>
<stop offset="0.8229" stop-color="#00070E"/>
<stop offset="0.9063" stop-color="#000204"/>
<stop offset="1"/>
</linearGradient>
<linearGradient id="paint73_linear_5455_29943" x1="17.1383" y1="30.055" x2="58.2398" y2="30.055" gradientUnits="userSpaceOnUse">
<stop offset="0.1157" stop-color="#85FBFF"/>
<stop offset="0.4263" stop-color="#00729B"/>
<stop offset="0.4377" stop-color="#006D95"/>
<stop offset="0.5466" stop-color="#004162"/>
<stop offset="0.6289" stop-color="#002543"/>
<stop offset="0.6745" stop-color="#001B37"/>
<stop offset="0.7436" stop-color="#001020"/>
<stop offset="0.8229" stop-color="#00070E"/>
<stop offset="0.9063" stop-color="#000204"/>
<stop offset="1"/>
</linearGradient>
<linearGradient id="paint74_linear_5455_29943" x1="17.1383" y1="35.9111" x2="58.2396" y2="35.9111" gradientUnits="userSpaceOnUse">
<stop offset="0.1157" stop-color="#85FBFF"/>
<stop offset="0.4263" stop-color="#00729B"/>
<stop offset="0.4377" stop-color="#006D95"/>
<stop offset="0.5466" stop-color="#004162"/>
<stop offset="0.6289" stop-color="#002543"/>
<stop offset="0.6745" stop-color="#001B37"/>
<stop offset="0.7436" stop-color="#001020"/>
<stop offset="0.8229" stop-color="#00070E"/>
<stop offset="0.9063" stop-color="#000204"/>
<stop offset="1"/>
</linearGradient>
<linearGradient id="paint75_linear_5455_29943" x1="12.5206" y1="19.9458" x2="56.2437" y2="19.9458" gradientUnits="userSpaceOnUse">
<stop offset="0.1157" stop-color="#85FBFF"/>
<stop offset="0.4263" stop-color="#00729B"/>
<stop offset="0.4377" stop-color="#006D95"/>
<stop offset="0.5466" stop-color="#004162"/>
<stop offset="0.6289" stop-color="#002543"/>
<stop offset="0.6745" stop-color="#001B37"/>
<stop offset="0.7436" stop-color="#001020"/>
<stop offset="0.8229" stop-color="#00070E"/>
<stop offset="0.9063" stop-color="#000204"/>
<stop offset="1"/>
</linearGradient>
<linearGradient id="paint76_linear_5455_29943" x1="12.5205" y1="19.5888" x2="56.2435" y2="19.5888" gradientUnits="userSpaceOnUse">
<stop offset="0.1157" stop-color="#85FBFF"/>
<stop offset="0.4263" stop-color="#00729B"/>
<stop offset="0.4377" stop-color="#006D95"/>
<stop offset="0.5466" stop-color="#004162"/>
<stop offset="0.6289" stop-color="#002543"/>
<stop offset="0.6745" stop-color="#001B37"/>
<stop offset="0.7436" stop-color="#001020"/>
<stop offset="0.8229" stop-color="#00070E"/>
<stop offset="0.9063" stop-color="#000204"/>
<stop offset="1"/>
</linearGradient>
<linearGradient id="paint77_linear_5455_29943" x1="31.5773" y1="23.3442" x2="61.2052" y2="23.3442" gradientUnits="userSpaceOnUse">
<stop/>
<stop offset="0.0937" stop-color="#000204"/>
<stop offset="0.1771" stop-color="#00070E"/>
<stop offset="0.2564" stop-color="#001020"/>
<stop offset="0.3255" stop-color="#001B37"/>
<stop offset="0.3711" stop-color="#002543"/>
<stop offset="0.4534" stop-color="#004162"/>
<stop offset="0.5623" stop-color="#006D95"/>
<stop offset="0.5737" stop-color="#00729B"/>
<stop offset="0.8843" stop-color="#85FBFE"/>
</linearGradient>
<linearGradient id="paint78_linear_5455_29943" x1="30.0002" y1="23.4999" x2="51" y2="23.4999" gradientUnits="userSpaceOnUse">
<stop stop-color="#FFDA55"/>
<stop offset="0.6" stop-color="#ED42F3"/>
<stop offset="1" stop-color="#77F8FB"/>
</linearGradient>
</defs>
</svg>
