<svg width="30" height="28" viewBox="0 0 30 28" fill="none" xmlns="http://www.w3.org/2000/svg">
<g clip-path="url(#clip0_4958_2)">
<path d="M20.9255 10.5H28.6745C29.4066 10.5 30.0001 11.0955 30.0001 11.83V18.9119C30.0001 21.6115 27.8189 23.8 25.1283 23.8H25.1052C22.4146 23.8004 20.2331 21.6122 20.2327 18.9126C20.2327 18.9124 20.2327 18.9121 20.2327 18.9119V11.1951C20.2327 10.8112 20.5429 10.5 20.9255 10.5Z" fill="#5059C9"/>
<path d="M26.1627 9.09999C27.8966 9.09999 29.3023 7.68969 29.3023 5.94999C29.3023 4.21029 27.8966 2.79999 26.1627 2.79999C24.4288 2.79999 23.0232 4.21029 23.0232 5.94999C23.0232 7.68969 24.4288 9.09999 26.1627 9.09999Z" fill="#5059C9"/>
<path d="M16.3952 9.10001C18.8998 9.10001 20.9301 7.0629 20.9301 4.55001C20.9301 2.03711 18.8998 0 16.3952 0C13.8907 0 11.8604 2.03711 11.8604 4.55001C11.8604 7.0629 13.8907 9.10001 16.3952 9.10001Z" fill="#7B83EB"/>
<path d="M22.442 10.5H9.65088C8.9275 10.518 8.35526 11.1203 8.37205 11.8461V19.9234C8.27103 24.279 11.7055 27.8934 16.0465 28C20.3874 27.8934 23.8219 24.279 23.7209 19.9234V11.8461C23.7376 11.1203 23.1654 10.518 22.442 10.5Z" fill="#7B83EB"/>
<path opacity="0.1" d="M16.7443 10.5V21.819C16.7408 22.3381 16.4273 22.8044 15.9489 23.002C15.7966 23.0666 15.6329 23.1 15.4675 23.1H8.98615C8.89545 22.869 8.81173 22.638 8.74196 22.4C8.49774 21.5968 8.37313 20.7618 8.37219 19.922V11.844C8.35542 11.1193 8.92671 10.518 9.64893 10.5H16.7443Z" fill="black"/>
<path opacity="0.2" d="M16.0466 10.5V22.519C16.0466 22.6849 16.0134 22.8492 15.9489 23.002C15.752 23.482 15.2872 23.7965 14.7699 23.8H9.31406C9.19545 23.569 9.08383 23.338 8.98615 23.1C8.88847 22.862 8.81173 22.638 8.74196 22.4C8.49774 21.5968 8.37313 20.7618 8.37219 19.922V11.844C8.35542 11.1193 8.92671 10.518 9.64893 10.5H16.0466Z" fill="black"/>
<path opacity="0.2" d="M16.0466 10.5V21.119C16.0413 21.8243 15.4728 22.3947 14.7699 22.4H8.74196C8.49774 21.5968 8.37313 20.7618 8.37219 19.922V11.844C8.35542 11.1193 8.92671 10.518 9.64893 10.5H16.0466Z" fill="black"/>
<path opacity="0.2" d="M15.3489 10.5V21.119C15.3436 21.8243 14.7751 22.3947 14.0722 22.4H8.74196C8.49774 21.5968 8.37313 20.7618 8.37219 19.922V11.844C8.35542 11.1193 8.92671 10.518 9.64893 10.5H15.3489Z" fill="black"/>
<path opacity="0.1" d="M16.7442 6.88102V9.08602C16.6256 9.09302 16.514 9.10003 16.3954 9.10003C16.2768 9.10003 16.1652 9.09303 16.0466 9.08602C15.8111 9.07034 15.5775 9.03286 15.3489 8.97403C13.9361 8.63834 12.7689 7.64422 12.2093 6.30003C12.1131 6.0743 12.0383 5.83991 11.9861 5.60004H15.4675C16.1715 5.60271 16.7416 6.17465 16.7442 6.88102Z" fill="black"/>
<path opacity="0.2" d="M16.0464 7.58097V9.08598C15.8109 9.0703 15.5774 9.03281 15.3488 8.97398C13.936 8.63829 12.7688 7.64418 12.2092 6.29999H14.7697C15.4737 6.30266 16.0438 6.87462 16.0464 7.58097Z" fill="black"/>
<path opacity="0.2" d="M16.0464 7.58097V9.08598C15.8109 9.0703 15.5774 9.03281 15.3488 8.97398C13.936 8.63829 12.7688 7.64418 12.2092 6.29999H14.7697C15.4737 6.30266 16.0438 6.87462 16.0464 7.58097Z" fill="black"/>
<path opacity="0.2" d="M15.3488 7.58099V8.97398C13.936 8.63829 12.7688 7.64418 12.2092 6.29999H14.072C14.776 6.30268 15.3461 6.87463 15.3488 7.58099Z" fill="black"/>
<path d="M1.27883 6.29999H14.07C14.7763 6.29999 15.3488 6.87446 15.3488 7.58308V20.4169C15.3488 21.1255 14.7763 21.7 14.07 21.7H1.27883C0.572546 21.7 0 21.1255 0 20.4169V7.58308C0 6.87446 0.57256 6.29999 1.27883 6.29999Z" fill="url(#paint0_linear_4958_2)"/>
<path d="M11.04 11.1846H8.48301V18.1706H6.85395V11.1846H4.30884V9.82941H11.04V11.1846Z" fill="white"/>
</g>
<defs>
<linearGradient id="paint0_linear_4958_2" x1="2.6664" y1="5.2974" x2="12.7325" y2="22.6736" gradientUnits="userSpaceOnUse">
<stop stop-color="#5A62C3"/>
<stop offset="0.5" stop-color="#4D55BD"/>
<stop offset="1" stop-color="#3940AB"/>
</linearGradient>
<clipPath id="clip0_4958_2">
<rect width="30" height="28" fill="white"/>
</clipPath>
</defs>
</svg>
