<svg width="80" height="80" viewBox="0 0 80 80" fill="none" xmlns="http://www.w3.org/2000/svg">
<path d="M23.5808 17.8167C25.8961 17.8167 27.773 15.9398 27.773 13.6245C27.773 11.3093 25.8961 9.43237 23.5808 9.43237C21.2656 9.43237 19.3887 11.3093 19.3887 13.6245C19.3887 15.9398 21.2656 17.8167 23.5808 17.8167Z" fill="#EA4335"/>
<path d="M23.5808 35.2838C25.8961 35.2838 27.773 33.4069 27.773 31.0917C27.773 28.7764 25.8961 26.8995 23.5808 26.8995C21.2656 26.8995 19.3887 28.7764 19.3887 31.0917C19.3887 33.4069 21.2656 35.2838 23.5808 35.2838Z" fill="#EA4335"/>
<path d="M23.5808 52.7511C25.8961 52.7511 27.773 50.8742 27.773 48.559C27.773 46.2437 25.8961 44.3668 23.5808 44.3668C21.2656 44.3668 19.3887 46.2437 19.3887 48.559C19.3887 50.8742 21.2656 52.7511 23.5808 52.7511Z" fill="#EA4335"/>
<path d="M23.5808 70.2184C25.8961 70.2184 27.773 68.3415 27.773 66.0262C27.773 63.711 25.8961 61.8341 23.5808 61.8341C21.2656 61.8341 19.3887 63.711 19.3887 66.0262C19.3887 68.3415 21.2656 70.2184 23.5808 70.2184Z" fill="#EA4335"/>
<path d="M38.6025 9.78166C41.3036 9.78166 43.4933 7.59196 43.4933 4.89083C43.4933 2.1897 41.3036 0 38.6025 0C35.9014 0 33.7117 2.1897 33.7117 4.89083C33.7117 7.59196 35.9014 9.78166 38.6025 9.78166Z" fill="#FBBC04"/>
<path d="M38.6025 27.2489C41.3036 27.2489 43.4933 25.0592 43.4933 22.3581C43.4933 19.657 41.3036 17.4673 38.6025 17.4673C35.9014 17.4673 33.7117 19.657 33.7117 22.3581C33.7117 25.0592 35.9014 27.2489 38.6025 27.2489Z" fill="#FBBC04"/>
<path d="M38.6025 44.7161C41.3036 44.7161 43.4933 42.5264 43.4933 39.8253C43.4933 37.1241 41.3036 34.9344 38.6025 34.9344C35.9014 34.9344 33.7117 37.1241 33.7117 39.8253C33.7117 42.5264 35.9014 44.7161 38.6025 44.7161Z" fill="#FBBC04"/>
<path d="M38.6025 62.1834C41.3036 62.1834 43.4933 59.9937 43.4933 57.2926C43.4933 54.5914 41.3036 52.4017 38.6025 52.4017C35.9014 52.4017 33.7117 54.5914 33.7117 57.2926C33.7117 59.9937 35.9014 62.1834 38.6025 62.1834Z" fill="#FBBC04"/>
<path d="M38.6025 80C41.3036 80 43.4933 77.8103 43.4933 75.1092C43.4933 72.4081 41.3036 70.2184 38.6025 70.2184C35.9014 70.2184 33.7117 72.4081 33.7117 75.1092C33.7117 77.8103 35.9014 80 38.6025 80Z" fill="#FBBC04"/>
<path d="M53.4497 19.5633C56.6332 19.5633 59.2139 16.9826 59.2139 13.7991C59.2139 10.6156 56.6332 8.03491 53.4497 8.03491C50.2663 8.03491 47.6855 10.6156 47.6855 13.7991C47.6855 16.9826 50.2663 19.5633 53.4497 19.5633Z" fill="#34A853"/>
<path d="M53.4497 37.0306C56.6332 37.0306 59.2139 34.4499 59.2139 31.2664C59.2139 28.0829 56.6332 25.5022 53.4497 25.5022C50.2663 25.5022 47.6855 28.0829 47.6855 31.2664C47.6855 34.4499 50.2663 37.0306 53.4497 37.0306Z" fill="#34A853"/>
<path d="M53.4497 54.4979C56.6332 54.4979 59.2139 51.9171 59.2139 48.7337C59.2139 45.5502 56.6332 42.9695 53.4497 42.9695C50.2663 42.9695 47.6855 45.5502 47.6855 48.7337C47.6855 51.9171 50.2663 54.4979 53.4497 54.4979Z" fill="#34A853"/>
<path d="M53.4497 71.965C56.6332 71.965 59.2139 69.3843 59.2139 66.2008C59.2139 63.0174 56.6332 60.4366 53.4497 60.4366C50.2663 60.4366 47.6855 63.0174 47.6855 66.2008C47.6855 69.3843 50.2663 71.965 53.4497 71.965Z" fill="#34A853"/>
<path d="M68.297 28.9957C71.9628 28.9957 74.9345 26.024 74.9345 22.3581C74.9345 18.6923 71.9628 15.7206 68.297 15.7206C64.6312 15.7206 61.6594 18.6923 61.6594 22.3581C61.6594 26.024 64.6312 28.9957 68.297 28.9957Z" fill="#4285F4"/>
<path d="M8.55888 25.8516C10.4883 25.8516 12.0523 24.2876 12.0523 22.3582C12.0523 20.4288 10.4883 18.8647 8.55888 18.8647C6.6295 18.8647 5.06543 20.4288 5.06543 22.3582C5.06543 24.2876 6.6295 25.8516 8.55888 25.8516Z" fill="#4285F4"/>
<path d="M8.55888 43.3188C10.4883 43.3188 12.0523 41.7547 12.0523 39.8254C12.0523 37.896 10.4883 36.3319 8.55888 36.3319C6.6295 36.3319 5.06543 37.896 5.06543 39.8254C5.06543 41.7547 6.6295 43.3188 8.55888 43.3188Z" fill="#4285F4"/>
<path d="M8.55888 60.7861C10.4883 60.7861 12.0523 59.222 12.0523 57.2926C12.0523 55.3633 10.4883 53.7992 8.55888 53.7992C6.6295 53.7992 5.06543 55.3633 5.06543 57.2926C5.06543 59.222 6.6295 60.7861 8.55888 60.7861Z" fill="#4285F4"/>
<path d="M68.297 46.463C71.9628 46.463 74.9345 43.4912 74.9345 39.8254C74.9345 36.1596 71.9628 33.1879 68.297 33.1879C64.6312 33.1879 61.6594 36.1596 61.6594 39.8254C61.6594 43.4912 64.6312 46.463 68.297 46.463Z" fill="#4285F4"/>
<path d="M68.297 63.9301C71.9628 63.9301 74.9345 60.9584 74.9345 57.2926C74.9345 53.6268 71.9628 50.655 68.297 50.655C64.6312 50.655 61.6594 53.6268 61.6594 57.2926C61.6594 60.9584 64.6312 63.9301 68.297 63.9301Z" fill="#4285F4"/>
</svg>
