<svg width="80" height="80" viewBox="0 0 80 80" fill="none" xmlns="http://www.w3.org/2000/svg">
<g clip-path="url(#clip0_4946_23)">
<path d="M74.273 32.737C75.1675 30.0433 75.4768 27.1897 75.1804 24.3668C74.884 21.544 73.9885 18.8169 72.554 16.3677C70.4272 12.6658 67.1798 9.73489 63.2799 7.99757C59.38 6.26024 55.0292 5.80625 50.8546 6.70104C48.483 4.06291 45.4589 2.09528 42.0862 0.995747C38.7134 -0.103784 35.1107 -0.296495 31.6399 0.436969C28.1691 1.17043 24.9524 2.80425 22.3129 5.17432C19.6733 7.54439 17.7039 10.5673 16.6023 13.9394C13.8212 14.5097 11.1938 15.667 8.89583 17.334C6.59782 19.001 4.68208 21.1393 3.27665 23.606C1.12676 27.3018 0.207919 31.5855 0.652951 35.8378C1.09798 40.0902 2.88383 44.0908 5.75232 47.2614C4.85453 49.9538 4.54206 52.8069 4.83581 55.6299C5.12956 58.4528 6.02276 61.1805 7.45565 63.6304C9.58512 67.3336 12.8354 70.2652 16.738 72.0025C20.6406 73.7399 24.9941 74.1933 29.171 73.2974C31.0552 75.4192 33.3704 77.1147 35.962 78.2705C38.5536 79.4263 41.362 80.016 44.1996 80C48.4784 80.004 52.6478 78.6482 56.1059 76.1283C59.564 73.6085 62.1319 70.055 63.439 65.9807C66.2198 65.4094 68.8467 64.2517 71.1446 62.5847C73.4425 60.9177 75.3585 58.7798 76.7646 56.3137C78.8891 52.6234 79.7922 48.3558 79.3446 44.1212C78.8971 39.8866 77.1219 35.9017 74.273 32.737ZM44.1996 74.764C40.6954 74.7696 37.301 73.5413 34.6116 71.2947L35.0846 71.0267L51.0123 61.8327C51.4087 61.6002 51.7379 61.2686 51.9674 60.8704C52.1969 60.4723 52.3188 60.0213 52.3213 59.5617V37.1054L59.0546 41.0007C59.0879 41.0176 59.1168 41.0421 59.1388 41.0722C59.1608 41.1023 59.1754 41.1372 59.1813 41.174V59.7827C59.1729 63.7535 57.5917 67.5592 54.7839 70.3669C51.9761 73.1746 48.1704 74.7557 44.1996 74.764ZM11.9973 61.0127C10.2399 57.9781 9.60889 54.421 10.2153 50.967L10.6886 51.251L26.632 60.445C27.0265 60.6765 27.4756 60.7986 27.933 60.7986C28.3904 60.7986 28.8395 60.6765 29.234 60.445L48.71 49.2167V56.9914C48.7082 57.0317 48.6972 57.071 48.6781 57.1065C48.6589 57.142 48.632 57.1727 48.5993 57.1964L32.4666 66.5007C29.0237 68.4841 24.9345 69.0201 21.0967 67.9912C17.2589 66.9622 13.9863 64.4524 11.9973 61.0127ZM7.80265 26.3187C9.57226 23.2646 12.3654 20.9351 15.6876 19.7427V38.6667C15.6817 39.1239 15.7985 39.5743 16.0259 39.9709C16.2533 40.3676 16.5831 40.6959 16.9806 40.9217L36.362 52.1027L29.6283 55.9977C29.5919 56.017 29.5512 56.0272 29.51 56.0272C29.4687 56.0272 29.4281 56.017 29.3916 55.9977L13.2906 46.7094C9.85419 44.7174 7.34715 41.4448 6.31854 37.6083C5.28993 33.7718 5.82359 29.6839 7.80265 26.24V26.3187ZM63.1236 39.1714L43.6793 27.88L50.3973 24C50.4338 23.9807 50.4744 23.9706 50.5156 23.9706C50.5569 23.9706 50.5975 23.9807 50.634 24L66.735 33.3044C69.1968 34.7249 71.2038 36.8164 72.5215 39.3347C73.8393 41.8531 74.4134 44.6943 74.177 47.5267C73.9406 50.3591 72.9033 53.0658 71.1862 55.3308C69.4692 57.5958 67.1433 59.3257 64.48 60.3184V41.3944C64.466 40.938 64.3336 40.493 64.0958 40.1032C63.8579 39.7134 63.5231 39.3925 63.1236 39.1714ZM69.826 29.0944L69.3526 28.8104L53.441 19.5377C53.0441 19.3048 52.5922 19.182 52.132 19.182C51.6718 19.182 51.2199 19.3048 50.823 19.5377L31.3633 30.7657V22.9914C31.3592 22.9518 31.3658 22.9119 31.3824 22.8758C31.3991 22.8398 31.4252 22.8088 31.458 22.7864L47.559 13.4977C50.0267 12.0761 52.8482 11.3865 55.6934 11.5096C58.5386 11.6326 61.29 12.5633 63.6258 14.1926C65.9615 15.822 67.785 18.0828 68.8831 20.7105C69.9811 23.3382 70.3083 26.2242 69.8263 29.031L69.826 29.0944ZM27.6883 42.8767L20.955 38.9974C20.9213 38.9771 20.8925 38.9496 20.8706 38.917C20.8487 38.8843 20.8343 38.8472 20.8283 38.8084V20.2474C20.832 17.4 21.6463 14.6124 23.1758 12.2107C24.7054 9.80898 26.8871 7.89233 29.4658 6.68483C32.0445 5.47734 34.9137 5.02891 37.7379 5.39197C40.5621 5.75503 43.2245 6.91458 45.414 8.73504L44.9406 9.00337L29.0133 18.1967C28.6169 18.4292 28.2878 18.7608 28.0583 19.159C27.8288 19.5571 27.7068 20.0081 27.7043 20.4677L27.6883 42.8767ZM31.347 34.992L40.0203 29.9927L48.71 34.992V44.99L40.052 49.989L31.363 44.99L31.347 34.992Z" fill="white"/>
</g>
<defs>
<clipPath id="clip0_4946_23">
<rect width="80" height="80" fill="white"/>
</clipPath>
</defs>
</svg>
