<svg width="80" height="80" viewBox="0 0 80 80" fill="none" xmlns="http://www.w3.org/2000/svg">
<path d="M8.62889 48.3495C8.62889 51.4018 9.2974 53.7437 10.1716 55.1643C11.3184 57.0225 13.0308 57.81 14.774 57.81C17.0212 57.81 19.0833 57.2489 23.0481 51.7621C26.2261 47.3612 29.9697 41.1846 32.4895 37.3139L36.7576 30.7513C39.7196 26.196 43.1496 21.1312 47.0835 17.698C50.2924 14.898 53.7583 13.3384 57.2448 13.3384C63.0968 13.3384 68.6712 16.7304 72.9342 23.0974C77.6035 30.0719 79.8713 38.8529 79.8713 47.912C79.8713 53.3011 78.8119 57.2592 77.007 60.3836C75.2637 63.4101 71.8646 66.4315 66.1463 66.4315V57.81C71.0418 57.81 72.2657 53.3062 72.2657 48.1539C72.2657 40.8089 70.5533 32.6609 66.7839 26.8343C64.1099 22.7011 60.6439 20.179 56.8283 20.179C52.7041 20.179 49.3873 23.293 45.6539 28.8417C43.669 31.791 41.6326 35.3837 39.3494 39.4397L36.8348 43.9023C31.7798 52.8738 30.4994 54.9173 27.9745 58.2887C23.5469 64.1925 19.7621 66.4315 14.7843 66.4315C8.87573 66.4315 5.14237 63.8734 2.8283 60.013C0.925626 56.868 0 52.74 0 48.0407L8.62889 48.3495Z" fill="#0081FB"/>
<path d="M6.80322 23.7048C10.7577 17.6054 16.4657 13.3333 23.012 13.3333C26.8019 13.3333 30.5712 14.4553 34.5052 17.6723C38.8093 21.1878 43.3963 26.9784 49.1198 36.5213L51.1716 39.9442C56.1288 48.2054 58.9468 52.4569 60.5975 54.4592C62.7213 57.0328 64.2075 57.7997 66.1359 57.7997C71.0314 57.7997 72.2553 53.2959 72.2553 48.1436L79.866 47.9068C79.866 53.2959 78.8066 57.2541 77.0017 60.3784C75.2584 63.405 71.8593 66.4264 66.141 66.4264C62.5876 66.4264 59.4353 65.6543 55.954 62.3652C53.2748 59.8431 50.1482 55.3548 47.7365 51.3246L40.5731 39.3522C36.9786 33.3403 33.6824 28.8623 31.7746 26.8291C29.7228 24.6467 27.0847 22.0114 22.8731 22.0114C19.4637 22.0114 16.5737 24.4048 14.1517 28.0645L6.80322 23.7048Z" fill="url(#paint0_linear_4948_19)"/>
<path d="M22.8732 22.0167C19.4639 22.0167 16.5738 24.4101 14.1518 28.0697C10.727 33.2427 8.62889 40.948 8.62889 48.3496C8.62889 51.4019 9.2974 53.7439 10.1716 55.1645L2.81802 60.0131C0.925626 56.8682 0 52.7402 0 48.0408C0 39.4913 2.34492 30.5816 6.80335 23.7049C10.7578 17.6055 16.4659 13.3334 23.0121 13.3334L22.8732 22.0167Z" fill="url(#paint1_linear_4948_19)"/>
<defs>
<linearGradient id="paint0_linear_4948_19" x1="17.3159" y1="38.5095" x2="72.307" y2="41.2842" gradientUnits="userSpaceOnUse">
<stop stop-color="#0064E1"/>
<stop offset="0.4" stop-color="#0064E1"/>
<stop offset="0.83" stop-color="#0073EE"/>
<stop offset="1" stop-color="#0082FB"/>
</linearGradient>
<linearGradient id="paint1_linear_4948_19" x1="11.5064" y1="51.9736" x2="11.5064" y2="31.6802" gradientUnits="userSpaceOnUse">
<stop stop-color="#0082FB"/>
<stop offset="1" stop-color="#0064E0"/>
</linearGradient>
</defs>
</svg>
